<?xml version="1.0" standalone="no"?>
<!DOCTYPE svg PUBLIC "-//W3C//DTD SVG 1.1//EN" "http://www.w3.org/Graphics/SVG/1.1/DTD/svg11.dtd" >
<svg xmlns="http://www.w3.org/2000/svg" xmlns:xlink="http://www.w3.org/1999/xlink" version="1.1">
<metadata>
Created by FontForge 20230101 at Thu Sep 25 12:10:37 1997
 By Glenn Lewis
http://members.aol.com/vroomfonde/ttf/ - Signal To Noise Copyright (c) 1997 Tom Murphy 7 - Freeware! But not to be resold (on CD, for instance!) - ImightbeTM@aol.com - Tom 7 - 339 Still Hill Rd - Hamden CT 06518.1830 - USA - Mothballs make poor hors de'o
</metadata>
<defs>
<font id="SignalToNoise" horiz-adv-x="213" >
  <font-face 
    font-family="Signal To Noise"
    font-weight="400"
    font-stretch="normal"
    units-per-em="1000"
    panose-1="0 0 4 0 0 0 0 0 0 0"
    ascent="800"
    descent="-200"
    x-height="718"
    cap-height="728"
    bbox="0 -3.04 438 800"
    underline-thickness="20"
    underline-position="-143"
    unicode-range="U+0020-007A"
  />
<missing-glyph horiz-adv-x="500" 
d="M63 0v800h375v-800h-375zM125 63h250v675h-250v-675z" />
    <glyph glyph-name=".notdef" horiz-adv-x="500" 
d="M63 0v800h375v-800h-375zM125 63h250v675h-250v-675z" />
    <glyph glyph-name=".null" horiz-adv-x="0" 
 />
    <glyph glyph-name="nonmarkingreturn" horiz-adv-x="470" 
 />
    <glyph glyph-name="space" unicode=" " horiz-adv-x="470" 
 />
    <glyph glyph-name="A" unicode="A" horiz-adv-x="224" 
d="M189 90q0 -11 -12 -29q-14 12 -36.5 13.5t-43.5 2.5q-39 14 -39 140q0 36 2 44q4 18 21 41h4q17 -4 19 -17q-9 -3 -11 -15q-2 -10 1 -16q-1 4 -4 1q1 -20 6 -74q4 -47 4 -51q0 -24 16 -24h32q1 3 4 11t3 13q0 4 -10.5 67.5t-10.5 68.5v18q16 -10 36 -24v6q2 -28 11 -103
q8 -70 8 -73zM148 722q0 -5 -2.5 -5t-2.5 -1v-18q0 9 -4 9h-7l-15 -3q-1 37 -35 37q-10 0 -12 -9q-2 -31 -15 -85l3 -23q3 -3 6 -1q3 3 3 7q2 -23 -7 -64q-7 4 -22 11q0 4 1.5 12.5t1.5 9.5q5 5 0 16q-17 26 -17 42q0 5 2 4q3 -1 4 0q4 64 17 95q11 20 27 20q19 0 44 -14
q30 -17 30 -40zM163 638q1 12 -3 17q-5 -22 -5 -36q0 -38 -5 -110q-1 -5 -10.5 -13t-18.5 -16v111q-1 16 7 35q5 5 15 21q2 2 -5 5q-11 11 -11 27l11 10.5t11 20.5q4 -14 10 -43h4v-29zM29 618h-6v20h6v-20zM157 504l-1 -103q1 12 -3 17q-9 -9 -25 -17q0 10 -2 31t-2 24
q0 5 14 22q16 21 19 26zM147 395l-7 -10v16h5zM168 285q-17 10 -35 20.5t-30 7.5q10 6 22 6q8 0 10 15q-2 11 0 30q3 20 1 30q0 -10 3 -17q1 1 7.5 5.5t10.5 8.5q11 -88 11 -87v-19zM91 514l3 -21l6 13zM90 473l-3 -9l8 -2l1 6zM114 463l-5 -9l10 4l-1 7zM97 417l8 2l-8 5
v-7zM106 414v-7l-2 -10l7 -3l-3 10l3 7zM153 397l-6 -8l7 3zM106 297l6 -12l10 8zM97 305l13 3l-8 -7zM155 276l15 -10l-2 5l-11 9zM99 209l2 -15l5 8zM30 166l10 -4l2 10zM195 85l7 -11l-9 -2zM193 61v-8l8 4l-4 7zM187 143l1 -9l6 6z" />
    <glyph glyph-name="B" unicode="B" 
d="M72 632l-5 -9l-5 2l5 9zM138 239l-6 16q-29 -3 -42 -9q1 10 -15.5 10t-32.5 6q-2 18 -11 67q8 0 14 4v16q-6 6 -8 6q-4 -9 -4 -20q0 10 -4.5 36t-4.5 38q0 10 2 17q-3 15 -7 42q-4 60 2 211q0 5 -5.5 14.5t-5.5 11.5q0 18 23 35q14 -15 16 -43q2 -40 5 -51q7 6 7 8
q0 -5 -5 -11v-80q0 -1 3.5 -32.5t3.5 -50.5l2 -2q10 3 10 13l5 -16q-1 -1 -7 0t-8 0q-4 -1 -3 -5q-1 4 -5 7.5t-4 7.5l-17 -4q-1 -2 -1 -4q1 -5 3 -5q3 1 5 5q6 -7 22 -23q0 -4 -8 -1l8 -14q9 0 14 10q0 -8 -5 -17q-3 0 -5.5 -3.5t-5.5 -5.5q6 -3 5 -12q0 4 -7 10
q-3 -3 0 -25q-7 -7 -15 -35v0q13 0 15 15q0 -10 4.5 -30.5t5.5 -30.5q-3 -11 -3 -17q0 -19 26 -25q-9 -9 -5 -17q7 14 21 14q30 0 28 -31zM87 382q-4 -4 -8 -8.5t-1 -11.5q-7 11 -5 19q3 -9 14 1zM160 242q-1 -3 -6 -8.5l-5 -5.5l-3 -3q-6 -5 -9 -7q0 11 23 24zM162 211h-6
v17h6v-17zM75 248q0 -13 -3 -16q-4 3 -4 14q0 -7 4 -11q3 4 3 13zM189 130q0 -20 -6 -34v-17q0 -13 -12 -26.5t-38 -21.5q-35 -10 -45 -16q0 12 1 38q-1 -11 4 -21q7 12 2 21q55 0 61 34q3 16 3 113q-1 -11 4 -24q5 12 4 26q-1 21 -1 26q0 -26 4 -42q8 7 2 17q17 -18 17 -73
zM76 148q-12 5 -34 14q0 7 2 48q1 28 -1 43q2 -4 4 -11t4 -10q10 10 10 12q0 -5 -5 -10q6 -6 20 -6v-80zM57 138h-6v16h6v-16zM51 127l-8 -4v17q11 -10 8 -13zM76 119q0 -17 -1 -54v-54q1 12 -3 21q-8 -14 -5 -25q-1 3 -3 -0.5t-2 -9.5q-16 -1 -20 23l7 96q2 -3 0 -9
q2 -2 6 0q6 2 9 2zM85 15h-6v37h6v-37zM50 460q0 -3 -3 -4q-4 4 -4 7q-3 -5 -10 -17v31q-9 -9 -9 -15q0 -5 2.5 -16t2.5 -14q9 10 21 28zM64 438h-5l-5 -12l6 -2zM180 78v20h-6v-20h6zM173 82v19h-6v-19h6zM166 101h-6l-4 -19h6zM81 514l2 -13l5 12zM95 534l6 -1l-1 5z
M73 522v-8l9 7zM92 568l-6 -10l8 -1zM125 549l-14 -2l11 -5zM164 598l-7 -8l10 -3zM67 592l5 -23l5 8l-11 17zM177 290l-10 -9l8 -6zM132 272l12 -11l-4 15zM80 328h4l-7 8z" />
    <glyph glyph-name="C" unicode="C" horiz-adv-x="188" 
d="M152 702q0 -3 -32 -53q5 38 -5 76q1 0 6 4q-4 5 -14 17l14 14q-2 2 -4 1q-11 -6 -15 -6q-13 7 -21 7q-21 0 -21 -22q0 -4 1.5 -15t1.5 -17t-1 -11q1 0 -30 -10v57q9 7 9 18q-1 16 -2 15q2 1 19 12q12 7 16 7q6 0 28 -11t27 -16v-3q10 -4 10 -15q0 -2 -1 -8.5t-1 -9.5
q0 -8 5 -12q1 1 1 15q0 -5 4.5 -17.5t4.5 -16.5zM151 643q-6 -6 -14 2q0 -1 1 -7q0 -4 -1 -5t-6 1q-6 -16 2 -16q5 0 9 3t6 3q6 -30 -8 -30q-4 0 -9 -6q5 -5 3 -5q-7 -27 3 -37q-7 7 -13 1l3 -7q3 33 -3 68q4 -2 6 1q-3 12 -11 31q4 5 5 5q11 0 12 7q0 4 1 9q8 8 14 8v-13.5
v-12.5zM62 664q-2 0 -4 7q-1 3 -1 6q1 -4 2 -4t1.5 7.5l0.5 7.5zM44 668l-7 -9v12l6 5zM35 646l-5 -4v6l2 5zM67 599q-1 -9 -5 -33q-17 2 -26 -3q0 1 -2.5 7.5t-2.5 11.5q0 8 5 34q7 33 14 39q3 -8 10 -21q2 -3 1 -13q0 7 -10 7q0 -12 -6 -19q8 -3 22 -10zM132 478l-7 -3v6
l7 2v-5zM98 481h-6l4 14l9 14zM83 423q-5 -1 -14 -9q5 -1 12 -5q-4 -2 -20 6v-28q1 4 -4 14q-6 -5 -5 -14q2 -19 2 -17v13q-1 7 -9 10q0 43 -7 149q16 9 29 22q-2 -2 -1 -5q2 -3 3 -2q-1 3 -1 -22q0 -17 7 -24v0l-3 -3t-3 -6q0 -5 3 -12q5 -11 4.5 -32t6.5 -35zM79 389
q-3 -3 -8 9q-3 -3 -4 -14v21q5 -6 12 -16zM165 220q-2 -1 -30 -11q0 7 1 21v20q-1 -10 4 -24q1 1 1 15q0 11 -1 13q-13 7 -12 19v35q12 -6 30 0q1 -15 -2 -20q-3 0 -5 -6q-5 -8 -10 -13q2 -2 3 -6t2 -6q4 3 4 10q-1 -10 3 -20q5 7 3 24q1 -3 9 -51zM98 318l-5 -13l-4 2l4 11
h5zM101 230l-3 4l-3 9l6 -6v-7zM101 219l-4 -5l-2 3l5 9zM172 120q0 -27 -10 -53q-15 -35 -41 -35q-6 0 -12 2q-11 2 -22 14l-14 18q-7 16 -19 45q-1 5 -2 22q0 4 1 17t1 16q0 -8 4 -12q1 0 2.5 3.5t5.5 5.5v13q-3 2 -8 2q-4 -1 -4 -4q-9 96 -9 126q0 27 4 36q-8 21 22 44
q4 -22 9 -67q-4 2 -4 -6q0 -5 3.5 -7t6.5 -4q-3 3 -6 0q5 -27 1 -54q8 -6 3 -21q2 -2 4 -2q-8 -10 0 -18q-3 -11 -16 -19l7 -31q0 -13 15 -32q-7 -22 25 -55q13 4 15 17q2 9 3 19l3 4q-6 27 -5 80q5 5 30 11q7 -54 7 -75zM129 721v13h-6v-13h6zM56 573l-2 5l-5 -4l-3 -6z
M56 532l-4 14l-5 -2l12 -23zM63 449l3 6l-13 -5v-5zM149 237v16h-6v-16h6z" />
    <glyph glyph-name="D" unicode="D" horiz-adv-x="181" 
d="M150 158l-5 -9l-3 -10l3 21zM95 115h-6l-2 35l4 -8zM73 123q-9 -5 -21 -5q-19 0 -21 24q10 3 30 14q0 -16 12 -33zM139 678l-3 -7l-6 -7l4 14h5zM121 681l-5 -47q1 16 -3 21q-3 -10 -3 -38q-7 7 -9 64q0 4 -6 22q-7 -11 -6 -21q-16 64 -16 85q0 29 23 33q12 -13 13 -54
q1 -46 12 -65zM140 568q0 1 -7 7q-4 -7 -2 -24v31q1 -3 3 1t2 9q-2 -6 4 -24zM124 581l-4 -9l2 12l4 8zM109 506q-2 10 -4 29q-1 12 -9.5 37.5t-8.5 28.5v64q5 -18 19 -59q-11 -12 -1 -25q-1 0 -5 -4q4 -4 9 -17v-54zM119 527l-6 -10l1 38l5 13v-41zM133 482l-9 21l3 26
l5 -14zM133 449l-4 -4l-6 -3l1 5zM123 477q-6 -25 -6 -44q-7 7 -11 7q-2 -3 1 -11q3 -11 3 -14q0 -1 -14 9l3 3q0 4 1.5 38.5t1.5 40.5q1 -3 21 -29zM156 431q0 -3 -7 -11.5t-7 -12.5q1 -11 -3 -30h-5q7 19 2 33h-3q-3 -1 -3 -10q0 4 -2 13t-1 16q9 3 10 17q2 18 4 22h4
q0 -4 5.5 -18t5.5 -19zM144 353l-5 3l-8 9l3 3zM113 291q0 -24 -2 -26l-5 4q1 8 7 22zM142 232l-5 -20v30h6zM130 208v12q-1 6 -7 4v12q2 -2 6 -3q1 -1 1 -25zM143 174l-4 7l-2 6h6v-13zM65 195l-8 -3v16v8zM55 175q-8 -9 -27 -15q0 3 -2 14t-2 15q0 34 26 31zM146 309
q0 1 -7 -6q0 6 -4 15v12q9 10 8 15q-3 -1 -19 1q0 7 -1 20v17q0 -22 -3 -26q-5 8 -10 32q-4 19 -12 23q-4 -8 0 -19q-1 -4 -8 -11q12 -1 13 -19l2 -36h-2q-4 -17 -8 -25q-3 8 -7 17q-6 14 -15 14q-14 0 -16 -2q-14 -13 -29 -27q0 -1 -4.5 -8t-5.5 -11q-3 -13 -2 -31
q2 -26 2 -28h17q11 0 12 11q2 19 9 55q5 6 8 6q1 -1 47 -46q-4 -2 -10 -4q0 -4 -2 -16.5t-2 -16.5q0 -5 2 -13t2 -10q13 -7 12 -10v-4q-8 -3 -20 -10h5q13 -15 13 -31q0 -4 -1.5 -11.5t-1.5 -10.5q8 0 12 -9q1 -4 0 -5q-7 0 -16.5 -3.5t-13.5 -3.5q-10 0 -16 19
q0 -11 -32 -13q4 -8 18.5 -22.5t22.5 -14.5q5 0 9.5 1.5t7.5 1.5q22 0 22 -34q4 4 16 4q0 9 3.5 26t3.5 20q0 11 -1 13q-7 15 -6 75q-10 -1 -24 6q1 2 7.5 8t6.5 10q0 7 -17 40q-7 4 -7 7q0 5 7 11.5t8 11.5q4 -7 10 -21q5 5 11 12q1 5 -1 15t-2 15q0 13 9 24zM88 416l3 -7
l3 5l-7 5zM131 612l13 5l-1 -8z" />
    <glyph glyph-name="E" unicode="E" horiz-adv-x="210" 
d="M189 214q-3 -3 -6 -17q0 -1 -3 -7.5t-3 -10.5q0 -5 2.5 -18.5t2.5 -17.5q0 -5 -5.5 -9.5t-6.5 -7.5q1 0 -20 0q2 2 5 12q0 6 -3 35q-3 23 -2 34q1 8 19 25q0 3 -3 3q2 0 7.5 4.5t7.5 4.5q2 -6 8 -30zM196 164l-7 -11l-5 2l5 3zM122 92q0 -7 -19 -26q-11 6 -14 34
q-3 38 -4 40q-12 34 -12 45t11 18q15 12 20 20q0 -2 3 -23q3 -17 0 -25q-1 -3 -10.5 -12.5t-9.5 -14.5q0 -7 6 -19q2 8 18 31q0 -11 5.5 -38t5.5 -30zM180 120q0 -3 -3 -17q8 -5 2 -19q-14 -36 -20 -36q-5 0 -5 2t-1 2v-14h-25q-8 0 -16 8q15 17 41 51q-2 -8 3 -17q4 6 5 18
q1 16 2 20q0 -7 3 -10l10 10q1 -3 3 -2q1 1 1 4zM12 629l-2 -10l-4 26l5 10zM161 604q0 -17 -10 -31t-23 -14q-36 0 -48 -6q3 -111 17 -240q0 -1 -4 -11q7 -8 4 -35l4 -4.5t4 -9.5q0 -19 -31 -33q0 14 1.5 16t1.5 3q0 7 -9 10q-1 12 4 29q0 2 -3 3q-4 5 -2 14q-10 49 -10 46
q0 8 3 10q-7 14 -3 45q-5 -3 -5 5q0 4 2.5 14.5t3 12.5t4 3.5t4.5 3.5q-4 4 -12 2q-1 3 -5 9l3 4q0 3 12 -3q6 5 6 10q0 8 -7 15t-14 7q-2 6 1 19q-1 5 -7 7q4 7 2 18t-8 14q3 4 5 5t0 10q-1 11 0 16q7 7 7 10q0 5 -6 16q-9 -10 -11 -10l11 13q1 0 8 -14q14 14 11 23
q2 -3 3 -4q3 0 3 20q11 -32 16 -32q40 0 46 -2l2 -2q4 2 9 25q-10 -2 -10 -5q0 12 -4.5 37.5t-4.5 28.5q0 8 8.5 17.5t6.5 16.5q-3 0 -21 -18q2 11 -5 35q-9 28 -22 28q-6 0 -12 -6l-2 -127q-1 9 -12 32q-2 -5 -2 -21q1 12 -3 17q-2 -1 -3.5 -5.5t-3.5 -4.5q-11 0 -11 -7
q5 160 46 160q42 0 66 -102q2 -9 -5 -19l2 -15q3 3 3 14q9 -53 9 -63zM169 443l-14 -20h-6l6 8zM13 580l1 -14h-7l4 3zM168 388q-6 -5 -6 -9q0 -1 2 -4q1 -3 0 -5q-1 -6 2 -19q-3 8 -9 21q2 1 0 7q-3 9 -3 11q1 0 7 -2q5 -2 7 0zM63 458q-2 0 -17 16q1 0 5 -2t3 -3t9 -11z
M43 405l-5 7l-4 5l5 2zM175 284q-6 -1 -10.5 -2t-5.5 -13q0 1 -3 6q-7 -6 -3 -9q-10 8 -10 18q0 5 6 12.5t5 10.5q1 -3 6 -2q8 2 7 2q2 -4 4 -12t4 -11zM176 268q1 1 2 1q2 0 0 -7t-7 -6q3 2 1 10q-3 8 -7 12q3 -1 11 -10zM88 244l-6 -1l9 16l6 1zM9 615l7 -11l2 9zM76 214
l-2 -10l10 8zM56 179l8 6l-5 7zM38 184v-13l2 9zM101 159l-2 -6l2 1v5zM128 86l-3 -10l6 6zM139 103l-2 -10l4 -4l-1 6zM198 114l-2 7l-5 -7h7zM175 201l2 -6l5 10zM170 216l-3 -8l6 4z" />
    <glyph glyph-name="F" unicode="F" 
d="M199 609q-1 -5 -13 -26q-20 3 -24 22v6q9 -7 34 2q-7 6 -33 6q2 18 8 46l20 27l6 -4q5 -39 2 -79zM196 707q0 -4 -11 -13q-14 -12 -17 -16q0 2 4.5 12.5t4.5 15.5q0 7 -6 11l-3 -3q0 15 -14.5 26.5t-31.5 11.5q-10 0 -30 -16t-21 -20q0 -28 -2 -82q-2 -2 -10 -8
q-2 -5 -11 -8t-6 -9l-4.5 4.5t-4.5 10.5q0 70 5 97q2 11 31.5 37.5t47.5 26.5q21 0 47.5 -14t26.5 -32q0 -4 -2 -8l-4 3q-1 0 -1 -4t-1 -5l-3 -25q2 2 3.5 6.5t2.5 4.5q5 -6 5 9q0 -1 2.5 -4t2.5 -9zM130 681l-5 1h-6l9 4zM107 628l-4 -9l-2 26l3 -12zM149 496l-2 -10v13h6z
M155 450q-3 3 -13 35q1 -2 4.5 -7t5.5 -7q-4 4 -5 4t-1 -2q0 -5 9 -23zM77 334q-16 1 -28 -4q-8 41 -8 36q0 13 11 18q-2 1 -3 4t-3 5q-6 -7 -9 -7q2 2 0 9l-3 8q10 -4 19 -14l10 20q1 -1 -29 -1q2 5 8 39q-1 7 -1 18q3 4 2 11q-1 6 -6 7q2 1 5.5 3.5t5.5 4.5q-11 11 -11 27
q0 15 19 40q0 7 -2 9q-1 -2 -9 -2q-8 8 -8 13q0 7 22 24q0 5 1 5q4 -8 4 4l10 -9q-2 -5 -7.5 -15t-7.5 -15q0 -7 2 -9l8 7q0 -63 8 -236zM140 264q-10 -12 -26 -12h-30q-2 -5 -2 -113t3 -139h-21q-12 10 -12 43q-1 80 -4 142q-3 57 -3 64q-5 3 -26 4q-15 1 -15 15
q0 10 11 17.5t23 6.5q8 7 4 16q3 1 9 6q4 10 -5 10q14 0 31 5q0 -9 6 -29q20 -6 57 -19v-17zM53 299l-5 -12l-5 -5l11 1zM53 248l4 3h-7v-13zM158 640l7 3l-3 5zM68 617l5 -2l-1 3zM170 708l1 -7l2 2zM90 534l3 -19l2 1zM141 413l-2 -19l6 17zM83 332l5 -4l-3 5zM54 144
l1 -15l5 15h-6z" />
    <glyph glyph-name="G" unicode="G" 
d="M178 191h-5l-4 8l6 -5zM123 204q0 -3 -2 -14q-4 7 -4 14h6zM143 122l-4 -14l-6 2l5 12h5zM140 102l-1 -4l-8 -12l2 9zM152 549q1 0 -9 -2t-25 -2q0 13 -7 32q-25 -11 -24 -11q-5 0 -7.5 -2t-6.5 -2q-34 0 -40 34q3 8 4 23l-5 3q-14 47 -14 79q0 60 52 60q12 0 26 -3
q10 11 15 21q9 -3 20 -13.5t11 -16.5v-84h-30q-5 0 -6 9q-2 9 1 10.5t2 4.5t-4 4q8 31 -13 30q16 4 46 14q-12 0 -30 -4q-25 -6 -32 -7q-1 -2 -5 0q-4 3 -9 3q-16 0 -16 -12q0 11 16 -107q1 -4 14 -16q12 5 39 19q5 3 4 16q-1 14 -10 27q8 2 32 2zM136 549l-5 4l-5 4l5 2z
M138 537q-6 -5 -20 -17v17h20zM170 385q-12 4 -35 4q0 6 3 79q-4 4 -13 -5q0 3 -1.5 15t-1.5 18q0 23 16 24q2 0 6.5 6t10.5 8q0 3 -4 -19q11 -17 -6 -32q4 -4 14 -3q4 -7 4 -29q0 -16 -1 -18q-2 -7 -16 -20v-4l7 4t13 5zM65 431l-4 -17h-6l5 7zM73 319q-4 4 -10 3
q1 -2 2 -2t4 15q0 -12 4 -16zM183 229q1 -7 1 -13q-1 -11 -10 -14q1 -2 5 -8h4q0 2 1 -14.5t1 -32.5q0 -124 -67 -124h-27q-20 0 -38 47q-14 38 -14 56q0 -2 1 9t1 42q0 43 -1 122h20q0 -1 -10 -11q9 -6 20 8q0 -34 2 -105.5t2 -69.5q0 -22 21 -62q22 -4 24 -4q22 0 27 32
q1 17 2 35q4 12 4 20q0 1 -4 8q1 2 1 16q7 8 -1 23h-3q8 18 7 47l-4 48q2 4 14 12.5t12 14.5q0 3 -2 7q-9 -7 -25 -25q-3 10 -3 15q0 6 7 7q11 0 12 1q-7 5 -13 27q-4 -7 -3 -18q0 11 -8 15v24q7 -5 30 3q0 -1 -4.5 -4t-4.5 -8q5 -19 5 -12q4 1 10 4q1 -9 5 -53q3 -35 2 -57
q-5 -1 -16 -11q-14 -13 -14 -24q0 -4 2 -8q1 1 29 35zM177 381l-39 -13h23q6 0 11 5t5 8zM161 332l-3 6l-3 15l-2 -11zM71 360l-4 -9h12zM137 512l2 -8l6 6z" />
    <glyph glyph-name="H" unicode="H" horiz-adv-x="210" 
d="M166 162l-11 11l5 2l3 -5zM178 129q-7 -22 -26 -41v66q14 -14 14 -15q0 -3 -5 -5q0 -14 2 -18q4 3 8 6.5t7 6.5zM159 109h-3l-1 12l4 8v-20zM181 109q0 -43 -6 -60q-9 0 -24 8v23q16 8 30 29zM91 129q-4 2 -6 -1q9 -39 9 -62q0 -17 -5 -30q-11 -4 -14 -3q-12 7 -14 31
q-3 35 -5 40q7 7 28 14q-5 5 -6 5q0 -1 -11 -2q-4 0 -7 -1l8 24q8 18 23 24q0 1 0 -39zM120 764l-4 -14l-5 -11l4 25h5zM113 718l-4 -13l-5 2zM110 701l-8 -21l-5 2l5 7zM105 663l2 6l-11 -1l6 -4zM63 752v-44v-44h-38q7 4 4 29q0 20 -4 85q4 0 15 11q23 -17 23 -37z
M107 649l-9 -4v-4l5 -1zM99 637l-4 -9l-5 2l4 9zM90 599v11l3 11l-8 -12zM66 646q-12 -2 -34 -10v19h34v-9zM70 543l-38 -2v90q-1 0 9 1.5t25 1.5q4 -29 4 -91zM81 482q-14 0 -16 6q-4 -4 -4 -13q0 8 -4 13q-9 1 -9 -11q-7 4 -20 15q4 15 10 41q16 -5 35 -4v-27
q-9 2 -12 -2.5t-5 -5.5q9 -4 25 -12zM63 445l-11 5l8 2l10 -2zM68 423l-4 7l-5 3l8 5zM28 436l-4 -3l-8 -3l13 13zM38 394l-3 -6l-5 4l9 12zM76 389q2 -2 2 -6q0 -10 -16 -29q-9 -12 -19 -24q2 12 5 34q7 9 28 25zM68 313h-6l2 6l4 10v-16zM172 275q0 -4 -10 -12
q-15 -11 -17 -14q6 31 -20 53q-9 -4 -19 -17q-4 -17 -4 -20q-11 -7 -11 -19q1 -17 -0.5 -19.5t-18.5 -14.5q2 -7 -15 -22q3 49 -10 95q0 9 -5 22q14 16 37 47q0 -24 4 -38q16 10 41 18q11 -3 13 0q-28 -24 -81 -63v-12q1 0 5.5 -1.5t6.5 -1.5q5 6 -1 12q25 21 75 58
q8 -6 18 -19q12 -34 12 -32zM37 329l-4 -13l-1 9l-1 8zM173 165l-2 8l-4 5h6v-13zM39 290l-4 4q-7 11 -7 8q0 -5 2 -6.5t3 -6.5zM91 192q-3 -5 -34 -45v17q3 5 13 17q7 4 21 11zM19 534v7l-10 5l4 -7zM77 458q-11 11 -17 11q2 -2 -6 -9h-4q-5 7 -13 20q1 -12 -2 -35
q-2 -3 2 -13t7 -14q0 -13 3 -36q11 9 29 22q0 22 1 54zM41 368v16q-1 -10 -5 -2q1 0 -8 -16q-1 0 9 9q3 -3 4 -7zM159 246l-4 4l-7 -7l-2 -9zM182 198q-7 29 -7 36q-1 1 -1 15q-30 -22 -30 -30q0 -22 7 -48q7 -7 26 -18zM93 297l-4 -7l9 4zM107 272l8 -4l-8 -6v10zM51 179
l-5 -6h10zM97 171l-2 -11l6 1zM168 150l3 -9l6 6z" />
    <glyph glyph-name="I" unicode="I" horiz-adv-x="138" 
d="M125 330l-9 -7v10zM98 690q0 1 -3 0q-4 -10 -12 -27q-2 3 0 4q3 15 -3 51q-6 -27 -2 -44q-8 11 -19 23q8 21 18 31q3 -4 10 -31q4 12 11 31v-38zM63 661h-6l-3 19h5zM51 565l-2 -8l-6 -9v16zM54 507l-6 -8l-9 -2l5 7zM46 475l-4 -6l1 -9l-6 14zM55 488q-2 -8 -2 -70
q-3 19 -6 19q-1 0 -3 -6q-5 33 8 46l-6 5q-5 -2 -8 -2q9 8 17 8zM56 385l-6 12v14l5 -12zM43 395l-2 -11l-2 10v8zM114 312l-7 -6l-1 9zM109 52q-4 0 -19 -8q-11 9 -13 25q-5 58 -5 68q0 15 17 24q-6 5 -20 5q5 28 -2 42t-15 27l11 15h4q1 0 8 8q-5 5 -12 5t-7 -7
q-3 19 -1 24q0 -1 8 -10q3 3 3 8q0 4 -9 32q10 0 2 18h4q2 9 -4 14q2 6 -12 6l6 33l16 -10q-8 16 -4 79q2 34 -1 111q-2 47 7 62q-1 -4 -3 -11.5t-2 -11.5q0 -8 10 -14q-1 7 3 12q1 -3 1 -5q2 1 5.5 5.5t3.5 6.5q0 11 -13 24q7 -3 13.5 -16.5t4.5 -20.5q5 0 5 -7
q0 -2 -4.5 -38t-4.5 -55q0 3 -6 10q-9 -7 -9 -12q0 -4 7 -18q7 -17 8.5 -21.5t1.5 -24.5q0 -17 -3.5 -22t-10.5 -21v-6q2 0 13 11v-57q-25 -12 -23 -19q17 3 20 12q4 -23 6 -72q3 -9 3 -12q-7 17 -22 14q5 -8 11 -11q11 -7 13 -8q0 -13 -5 -21q1 -15 8 -49.5t7 -37.5v-75z
M87 341v10l-10 15l5 -21zM70 358q1 -1 -14 -1q0 -3 3 -9q3 0 7.5 3.5t3.5 6.5z" />
    <glyph glyph-name="J" unicode="J" horiz-adv-x="166" 
d="M99 747q0 -21 -29 -21q-8 7 -8 18q0 4 4 11q2 6 0 10q1 0 7.5 2t10.5 2q6 0 10.5 -9t4.5 -13zM119 585q0 -61 -7 -61q-1 0 -2 1q-9 1 -16 -17l-10 -28q0 20 -2.5 60.5t-2.5 61.5q-4 10 -3 42t7 45q8 -3 15.5 -16t7.5 -19q0 -4 -6 -15.5t-8 -20.5h2q7 5 10 15q2 -13 7 -35
q1 -5 8 -13zM127 471l-3 -8l-4 -12l-2 8zM122 399l-10 -31q-16 1 -25 -8q0 3 5 17q0 2 -1.5 14.5t-0.5 20.5l-3 11l10 10l9 9q-2 1 -2.5 3.5t-2.5 4.5q-2 -4 -18 -20q-3 14 0 39q5 8 17.5 21.5t15.5 19.5q3 -2 6 -11v-25q-3 -7 -11 -24q5 -2 5.5 -23.5t5.5 -27.5zM140 363
l-3 -5l-3 -7v12h6zM125 360q-4 -5 -2.5 -13t-6.5 -13q-2 0 -6.5 3t-8.5 3t-4 24l3 -6q5 -4 12 -4t13 6zM93 350l-2 -5l-6 -6l4 11h4zM136 178q0 -130 -42 -130q-4 0 -5.5 4.5t-4.5 5.5q-2 -2 -2 -6v-4q-1 2 -4 0q-4 -3 -9 -3q-28 0 -41 51q1 15 -6 43q-14 21 -14 25l7 -10
q0 5 6 11q3 64 12 131h26q-7 -4 -7 -16q1 -9 3 -18q-3 -51 2 -155q4 -29 17 -29q3 0 7.5 3.5t9.5 3.5q10 0 6 12q-3 7 9 13q0 109 -5 153l1 15q-6 6 -13 6l4 46q1 0 12 -3q9 -2 14 0q5 1 5 -1q0 -1 -1 -5t-1 -7q0 -6 4 -10l-8 10q-2 -10 1 -22t3 -11q0 -3 -6 -8t-4 -13
q3 0 9 3.5t11 3.5q-1 -2 0 -28q4 -13 4 -61zM22 108q-4 4 -13 4q4 3 4 9q-1 -1 3.5 -5.5t5.5 -7.5zM24 94l-9 3l3 8l2 -5zM90 603l-1 6l-5 10v-16h6zM104 540l-8 -1l-1 -6l4 -1zM110 415l-5 2l2 -6l3 -7v11zM107 384l-2 4l-5 -2l3 -8zM26 139v6l-1 11l-6 -7zM144 638v-10
l8 3zM139 435l-2 -11l5 -8zM139 406l1 -6h2zM140 385l-2 -7h8zM119 378l1 -8l7 16z" />
    <glyph glyph-name="K" unicode="K" horiz-adv-x="209" 
d="M137 589q0 2 1 -45q0 -29 -22 -32q-2 24 -5 67q10 0 14 8q1 0 -13 0l-10 144q0 22 16 33q0 -6 12 -15q0 -26 2 -72q5 -62 -3 -85q-2 -3 4 -3h4zM66 581q0 -3 -3.5 -17.5t-4 -20t-0.5 -8.5q0 5 -4 8l-10 -9q0 -7 -2 12q0 7 4 15l-10 10v105q0 4 -3 25.5t-3 26.5q0 11 7 26
q4 0 17 -9q12 -38 12 -48v-116zM52 657l-1 6l-5 -2l4 -11zM58 569l-8 2l-6 3l5 -9zM11 650l-11 1l4 9zM113 495l-6 -10l1 12l1 9zM141 474q0 -4 -5 -35q-7 -36 -9 -50q0 15 -6 46t-6 33q0 22 5 27.5t11 11.5h3q7 -15 7 -33zM71 532q0 -37 -4 -54q0 3 -2 17q-1 13 0 18
q6 0 6 19zM54 504l-7 -9l2 13zM60 503v-26l-5 -15l-2 24zM82 460l-3 -9l-5 14zM151 363h-6l-1 12zM94 410l-1 -13l-8 6l8 20zM30 454l-11 2l4 5h4zM73 427q0 -8 -4 -23.5t-4 -19.5v-21q-2 1 -10 -7q-1 0 -6 3q-3 2 -6 0v16q4 2 17 3q0 24 -2 73v4v-4l3 -3q1 7 7 18
q5 -13 5 -39zM31 442l-3 -12l-6 14h5zM33 419l-6 -17v17h6zM72 314h-15v28q1 -17 15 -28zM54 330h-6v22h6v-22zM40 335l-11 5l3 3zM47 332l-3 -7l-6 -8l4 15h5zM151 137q-9 -6 -28 -21q-9 26 -24 81q0 4 -4 15q0 -5 -8 19q-5 -63 4 -130q-8 -3 -12 -7q0 -8 13 -8
q0 -20 -10 -20q-20 0 -25 52q-2 37 -4 75q-1 10 -6 21q7 -7 9 -7q0 14 -1 45q-4 6 -4.5 6t-1.5 3q0 2 4 2v15q-4 4 -13 -4q1 5 -10 26q4 -7 16 -20q4 17 4 26q-7 1 24 1q5 0 6.5 3.5l1.5 3.5q-20 9 -20 20q0 4 4.5 18.5t4.5 21.5q0 -10 7 -31q1 1 5 2.5t6 2.5q0 1 -3 4t-3 7
q6 0 8 5l4 10q-2 2 -5 1l-3 -3q1 2 3 3q11 13 20 86q3 -25 9 -71q-1 -2 -5 -8q-7 4 -12 -2q3 -3 10 -3q8 1 12 8q-5 -20 -10 -59q-12 -12 -12 -28q0 -13 10 -21q21 -99 39 -140zM149 198l-13 17l8 -6zM44 246l-6 24h6v-24zM37 236h-5v21l4 -13zM50 221l-13 -4l9 3l2 5z
M142 118l-8 -6l1 7zM168 93q0 -4 -2 -12t-2.5 -9.5t-4 -3.5t-8.5 -2q-3 0 -11 5l-12 30q18 18 23 18q6 0 11.5 -9.5t5.5 -16.5zM45 192l-1 -3h-5l-4 7zM177 48l-5 -7l-6 6zM44 165l-3 -8l-6 -8l4 16h5zM102 89l-9 1l1 7zM44 145l-1 -21l-3 12l-2 9h6z" />
    <glyph glyph-name="L" unicode="L" horiz-adv-x="120" 
d="M16 442q3 -1 -3 -7q2 -3 2 -6q0 13 1 13zM53 288l-5 -14v25l5 10v-21zM88 216q-5 -3 -13 -12q2 -2 2.5 -6t2.5 -6q4 3 3 16q1 -2 1 -52q-1 1 0 15q0 9 -7 15l-2 -60q4 -2 5.5 -8.5t2.5 -7.5q-8 5 -8 -8q0 -7 6 -14q-12 0 -24 -7q-8 12 -8 33q0 2 3.5 27.5t4.5 35.5
q1 1 11 5q7 3 7 7t-16 8h-5q-4 26 -3 41q-2 3 -5 0q7 9 7 28q6 4 21 4v2q-2 2 -18 2l3 58q0 -1 19 -1q-7 -3 -7 -18q-13 0 -12 1v-18h16q0 -28 13 -80zM59 721q0 -8 -7 -53q-8 -50 -15 -74q1 25 -5 81l-6 56q0 4 2 15.5t2 16.5q6 5 15 14q0 1 9 -14q1 -6 3 -21.5t2 -20.5z
M62 618q-11 0 -12 -1q3 13 11 32q8 -8 1 -22q-5 -4 0 -9zM67 589l-3 -11v15h6zM68 562l-7 6q-4 -7 -4 -16q0 7 -3 9q-5 -21 -16 -65q-7 7 -14 0q0 6 9 6q0 3 1.5 9.5t1.5 9.5q6 6 -1 16l3 -2q7 9 8 33q2 36 4 45q5 -3 8.5 -3.5t3.5 -5.5v-8q-1 -6 -1 -11q0 -13 7 -23z
M15 572l-3 -10v15h5zM65 487q-6 0 -17 -10q-6 -7 -13 -13q7 25 29 91q0 -74 1 -68zM23 520l-5 -6l-1 4l-6 5zM24 484l-4 -11l-5 2l4 1zM72 439l-8 -97q3 17 -1 53l-2 2l-1 -1q-3 -40 -1 -52q0 -2 -4 -5.5t-4 -4.5q0 -8 -4 -21q-4 22 -11 72q-3 18 -2 48q1 4 15 23
q11 17 11 27q3 -15 12 -44zM28 561l-5 -8l9 -1zM39 587l-2 -12l4 6l2 16zM27 597v-6l4 2zM23 355l11 3l-5 11zM15 409l9 -4l-4 10zM64 307l-1 -6h7zM35 287l2 -5l5 5h-7zM79 140l5 -9l5 3zM79 80v-7l11 1zM40 671l5 -4l2 2z" />
    <glyph glyph-name="M" unicode="M" horiz-adv-x="256" 
d="M193 684q-17 -11 -23 -19q1 24 -16 55q13 0 28 11q11 -22 11 -47zM34 740l-3 -5l-3 -10v15h6zM26 763q1 -7 -3 -25q-5 -21 -5 -30q-1 41 1 55h7zM21 659l-3 30l-3 9h6v-39zM106 549l-4 7l-2 5h6v-12zM177 743q0 -2 -2 -8q-15 -11 -21 -11q-5 0 -12 6.5t-9 7.5
q-1 -12 -9 -33h-4q-1 -4 -9 -15q2 -2 4.5 -2.5t4.5 -2.5l10 10v-127q-7 -2 -17 -11q2 7 -2 16h-3q-5 14 -6 34q-1 14 0 37q1 29 1 36q3 2 8 7q-3 2 -9 13v20q1 24 -23 24q-30 0 -30 -65q0 5 8 -113l2 -10q1 -6 -1 -10q4 4 4 -3q0 -18 -9 -49q-5 -20 -17 -60l3 -15h2l4 23
q4 8 17 27q3 -5 -3 -14q2 -6 -3 -17q-6 -14 -6 -18q0 -5 3 -9h4q7 -13 -7 -52q-7 -19 -6 -33q-4 -2 -6 -6q0 1 0 -13q0 8 -6 8h-4q1 1 1 18q0 13 10 13l-9 6q3 12 -3 44l8 -16q8 8 8 17q0 -7 -4 13q-1 3 -5.5 1.5t-8.5 9.5v92q0 5 -1 20v26q0 67 1 55q0 3 -4.5 9.5
t-4.5 10.5q0 18 23 21v4q-2 4 -13 4v40q0 2 5 12t6 15v27q6 1 19 9t18 8q41 -17 44 -17q4 0 9.5 3.5t10.5 3.5q18 0 39 -21zM230 186q-2 -27 -2 -48q0 17 -4 49q-4 -7 -3 -20q0 26 -3 43q-3 -11 -2 -35q1 -32 1 -36l-4 -22q-3 -15 3 -24h-5q-1 -1 -2 -14q-6 0 -11 7
q-1 11 -2.5 39t-1.5 31v21q12 -1 18 2v13q-2 3 -14 2q-2 3 -2 11t-2 12q-4 0 -9 -17q0 7 1 14t9 9q6 7 -3 7v17q1 14 -1 22q6 -6 6 7q-6 6 -11 6v107q6 0 17 3q-4 5 -17 5v28v107l-3 3q-5 31 -12 117q13 4 25 17q1 -13 10 -41.5t9 -32.5v-194q0 -1 -2 -8q-1 -2 3 -4
q-5 -9 -5 -16q0 -6 3.5 -14t3.5 -11q-6 -14 -1 -23q-5 -16 -2 -31q1 -1 3 -4q1 -2 -0.5 -8.5t-1.5 -9.5q0 -11 12 -14q-9 -47 2 -72zM21 529l-9 -1l6 9zM224 92l-5 13l-1 16l4 12zM193 120l-4 -9l-5 2l5 8zM207 72l-18 -6l8 7l8 4zM185 40h-6v15l3 -12zM67 145q-7 1 -7 -3
q0 -3 3 -9.5t3 -8t1 -8.5q1 -6 0 -8q0 -4 -4 -3l5 -15l-2 2q-9 -6 -15 -30q-2 6 -11 12.5t-10 8.5q2 11 -1 58q-2 3 -5 0q0 2 4 9q0 -6 0 32q6 -17 15 -30q-5 -7 -5 -17q0 -15 13 -24q6 0 11 6q-5 11 -12 35q-2 11 -5 32q-1 2 -5 5q1 11 -10 11q-3 0 -4 16v34q1 25 1 30
t7 18q4 -1 11 4q1 0 11 -8q-3 -115 7 -137q0 4 3 10q3 -9 1 -22zM71 83l-3 -5l-6 -6l4 11h5zM80 70l-3 -18h-4l-4 14zM117 749l-9 1l4 -12zM122 652h-4l-4 -11l5 7zM119 602l-5 1l1 -7l4 -7v13zM214 326l-4 2l-5 -8l6 2zM209 292q0 17 -3 18q-4 -6 -6 -12l2 -6h7zM221 237
l-4 3l-14 12l13 -15h5zM54 271l-9 3l-4 9l2 -12h11z" />
    <glyph glyph-name="N" unicode="N" horiz-adv-x="227" 
d="M197 43q-4 -10 -15 -31q-6 5 -16 20q12 4 31 11zM75 41v13h-6l3 -5zM84 102l2 5h-6l2 -14zM95 95q0 -5 -1 -14h3l-2 -23l-5 5q-1 -5 -2 -8q5 -10 3 -32q-12 0 -31 4q0 5 4 22q3 14 1 22q-3 3 -3 8q2 -4 3 -8q1 0 4 -2q3 6 -1 19q0 12 -7 40q3 15 3 33q0 25 -18 121
q17 -4 38 2q11 -97 11 -189zM57 723q-3 -11 -15.5 -17.5t-22.5 -11.5q-1 33 7 49q7 -7 28 -20h3zM91 743q-7 -11 -17 -36q2 0 4 4l6 11q-2 -5 -7 -13q-9 -9 -20 -28q-3 -11 -2 -33v-37q-10 -7 -19 -25q6 -23 6 -36q-2 0 -8 2t-8 2q6 0 13 7q-7 7 -10 15q-11 31 -11 92v22
q17 -1 32 16l18 26q8 4 23 11zM168 445v9v-9zM172 341q-8 2 -19 -4q2 9 2 34q7 17 2 30q-10 -7 -10 -32q-9 16 -9 19q0 5 4 7t3 3.5t9 23.5q-2 -8 4 -18q5 5 5 13q0 7 -5 10q4 18 -1 41q-4 -22 -18 -57q0 2 -1 18q-1 11 7 13q0 7 -6 1q-2 13 3 17q0 16 -1 50q0 -2 2 -3
q7 6 7 18q0 8 -3.5 24.5t-3.5 24.5q-2 -21 -11 -64q0 5 -3.5 33t-3.5 44q0 17 3 28q2 -12 2 59q0 45 -19 45q-12 0 -18 -4q-1 3 -2 7q0 2 5.5 10.5t5.5 14.5q0 5 -3 10q6 -7 13 -6q6 -2 6 5q0 -6 7 -6q5 0 6 2.5t3 1.5q7 -4 14 -5q-4 -5 -1 -9q2 2 5.5 3.5t5.5 3.5
q6 -47 3 -71q0 4 -3 7q1 -33 4 -109q-8 0 -8 -6q0 6 -6 6l3 -39q5 5 4 14q-2 12 -1 14q0 -11 3 -14q1 0 3 2q-6 -48 5 -112q2 3 3 6q0 -25 3 -81zM157 657q0 -1 -4.5 -3.5t-4.5 -7.5q0 -4 3.5 -7.5l3.5 -3.5q2 5 2 22zM62 549l-4 23l-2 8h6v-31zM49 571l-4 -11v17h6zM57 495
l-2 -12l-3 27h6zM197 370l-15 -23l-5 2l8 12zM44 486l-9 8l-5 16h6zM146 345l-3 11l-3 9h6v-20zM78 364q-5 -6 -32 -15q8 -4 27 2q9 -43 1 -59h-28q1 13 -1 36l-5 7q1 4 3 8q3 8 3 12q0 7 -8 5q2 11 0 22q-2 14 -1 22q0 -8 3 -11q3 28 14 85q0 -3 5 -10q7 28 3 77l12 3
q-7 -7 -7 -13q0 -3 5 -9.5t5 -11.5q-2 2 -4 5.5t-4 4.5q-2 -10 -2 -23q0 -15 3.5 -36.5t3.5 -23.5q-7 -7 1 -12q-7 -11 -2 -19q2 0 2 -2l-2 2q-2 1 -5 -2q2 21 -5 35q-3 -2 -3 -16q0 -49 18 -63zM29 410l-8 -17v9l3 9zM29 381l-3 -2l-6 -5l4 9zM193 267l-7 6q-9 -18 -9 -23
q0 -41 7 -98q6 -8 6 -9q-7 -1 -7 -6q0 -3 2 -8l2 -5q0 -46 3 -65l-8.5 -2.5t-13.5 -2.5t-6 -1.5t-2 -1.5q-6 50 -6 157q0 5 -4.5 20t-4.5 19v33q13 -4 35 3q-9 19 -28 19q-5 0 -5.5 -3.5t-1.5 -3.5q0 5 2 17t2 17q1 0 7.5 4t11.5 4t4 -2q-1 -4 0 -5q2 0 13 9v-6
q-10 -10 -10 -14q7 7 12 7q-7 -14 -7 -30q0 -5 6 -15t7 -14zM173 237q-12 0 -16 5q0 -25 4 -32q-1 7 12 27zM164 270l3 -9l2 1zM22 453l18 25l-3 -8l-10 -21zM185 449l8 -6l-4 -2zM185 431l7 -4l-9 -4zM179 413l5 -5l-4 -9zM164 491h7l2 -7zM190 293l13 -6l-7 -6zM195 215h6
l-3 -7l-6 1zM87 79h-7v-12l6 1l3 7zM179 49l-14 -6l2 -5l16 6z" />
    <glyph glyph-name="O" unicode="O" horiz-adv-x="210" 
d="M161 341q-12 0 -15 12l3 4q3 -11 12 -16zM156 253l-2 -16h-6l2 16h6zM67 278h-6l-4 20h6zM46 293l-5 -16l-4 9l4 9zM29 148l-2 -8l-4 30l7 -13zM46 140l-8 11l-8 13h6zM105 64l-7 -5l-1 18l16 -15zM135 717l-4 -14v7l-1 7h5zM152 560l-1 -8l-11 -1l8 12zM170 443
q-2 0 -8.5 -3.5t-10.5 -3.5q-10 0 -10 -5l5 -6q10 11 14 11l8 -5q6 -39 0 -91h-4q-2 -8 3 -18q5 5 2 11q1 -5 0 -28q-1 5 -5 14q0 -20 -7 -58q-11 0 -11 -1q0 25 -3 66q-3 49 -3 66q-3 4 -7 11q2 21 4 81q2 68 -3 68t-5 -5q0 5 5 10q-3 3 -6 3q-1 23 0 69q-12 32 -2 70
q-4 14 -14 40q-6 5 -18 17q0 3 3 12t3 12l-2 3q-10 -13 -10 -28q0 2 -4 7q-2 -6 -11 -19q1 -3 1 -29q0 2 -3 7v-27q0 -19 -13 -23l6 -5q5 2 8 2q-4 -5 -4 -14q0 -6 4 -22t4 -23q0 1 -7.5 -7.5t-4.5 -18.5q6 7 6 11q2 -48 -3 -67q2 -6 8 -19q-2 2 -10 -7l-7 -5l6 -5q2 2 7 -5
q1 -7 1 -38q0 3 -6 -35q-5 5 -5 -5q-14 8 -23 8q2 6 6 15q-3 4 -2 12h4l-8 9q1 -3 7 -3q0 7 -10 7q-4 7 -4 10q2 0 7.5 -3.5t6.5 -3.5q0 6 -1 12q0 7 11 11l-6 5q-15 2 -15 12q1 14 -6 20q3 8 14 34q-4 -4 -7 -4q-1 49 5 70q-3 5 -9 14q9 7 24 24l-5 5q-7 -8 -19 -9
q2 2 2.5 5.5t1.5 2.5q2 13 10 39l-7 -6q5 7 8 21v2l-7 -6q5 23 10 45q10 27 36 30q1 -2 4 0q5 3 9 3t2.5 -3t2.5 -3q4 -1 4.5 1t4.5 2q23 0 36 -57q11 -49 7 -79q5 -24 0 -54q4 -5 1 -11q-2 -1 -15 -14l6 -5q3 0 6 -3q2 1 4 4.5t3 5.5q0 -12 5 -20q-4 0 -17 -13l5 -5l15 10
q-5 -5 -6 -18q-1 -9 0 -24q2 -19 2.5 -21t3 -5t2.5 -8v-26zM60 575l-3 -13l-14 -4l12 19zM125 464h-6l-6 4l8 12zM53 379q0 -22 -7 -33q1 24 2 22t3 2t2 9zM140 739l-14 -11l3 -5zM145 626l-5 2l-7 -15l10 7zM22 670l-4 23h-6l4 -11zM152 535h-5l-4 -12l14 1zM23 638h-5
l-4 -11l5 -2zM37 517l15 2l-12 20l-1 -13zM65 389q-2 10 -27 19q8 -39 8 -31q2 4 5.5 10.5t5.5 10.5q6 -12 8 -9zM173 270q-3 4 -3 32q0 -6 -3 -15.5t-3 -13.5q0 -8 8 -11q-10 -3 -27 -9q-2 -21 4 -26q-8 -26 -8 -51v-63q7 -1 20 -6q-1 -2 -4 -2.5t-4 -1.5q-6 -1 -14 -3
q-3 -14 -12 -18t-19 -4t-20 33q-3 0 -9 3q6 6 9 7q-2 28 -5 76q0 20 -3 52q-6 8 -15 24v47q6 18 6 36q-9 -8 -13 -5q4 3 9 7t5 9t-2.5 9t-2.5 5q-4 -15 -9 -29q-7 -20 -7 -30q0 -6 2 -9h7q5 -3 5 -6q0 -2 -6 -5l-6 -3l-3 2q-1 -14 -5 -31q3 -49 11 -143q12 0 22 -5v-1
q-20 -3 -20 -10q0 -5 4 -19.5t4 -18.5q7 -2 16 -7l-4 -4q9 -11 23.5 -13t27.5 -3q3 1 6 4q17 2 25 20l12 28q-15 0 -17 2q8 5 16 3q0 22 2 86q1 52 0 81z" />
    <glyph glyph-name="P" unicode="P" horiz-adv-x="169" 
d="M38 594l-4 -9l-5 2l4 8zM32 578l-8 -23l-5 2l4 8zM151 644q-5 -10 -6 -49q-1 -35 -13 -46q-31 -31 -46 -31q-5 0 -9 2t-10 3l-10 -4q0 -5 4 -3q-1 -5 -2 -16v-46q1 -32 6 -45q-5 -21 2 -236q-11 0 -13 -2q2 -2 13 -2q0 -23 -1 -68q1 -3 7 -10v-42h-18q-9 11 -14 31
q1 -4 4 6q-4 3 -4 15l23 3q-11 5 -27 5q0 41 -3 83q8 -2 16 3q-2 2 -16 1q0 -3 -1 17q-1 24 -1 70q-1 65 -1 171q6 0 16 6q-3 4 -16 -2q0 12 -5 35q-6 28 -7 37q-4 31 0 88l12 11l6 15h-2q-4 0 -8 -5q-5 -9 -7 -11q-3 -2 -3 135q8 0 15 7q11 -8 17 -27q31 10 30 10q5 0 4 -2
q-2 -3 0 -4q4 0 15.5 -2.5t15 -4.5t3.5 -14q3 2 13 7q17 -21 17 -41q0 -4 -1 -6zM132 695v6l-4 14l-7 -13zM117 661q0 28 -2 39q-9 10 -27 14q-16 10 -19 6q-10 -1 -22 -5q7 -44 6 -54h-3q-4 -2 -7.5 -7.5t-1.5 -7.5q7 0 7 -3l6 -58q0 -2 -3 -14q-1 -9 0 -16q4 2 11.5 2
t7.5 2q24 0 32 4q5 10 7 25q2 21 3 22q5 27 5 51zM45 635h-6l-3 -29l11 3zM79 530l9 -6l9 9zM69 728l6 9l-10 7zM84 742v-14l10 10zM95 721l11 -4l7 3zM82 329l-12 -9l21 1zM77 373l-7 -23l8 5z" />
    <glyph glyph-name="Q" unicode="Q" horiz-adv-x="201" 
d="M56 188l-6 7l-5 12h6zM120 74l-10 1l-4 3l4 8zM41 712l-3 -2l-6 -5l4 9zM95 631l-4 9l-2 6h6v-15zM169 56q-11 -11 -20 -11q-4 0 -15.5 10t-15.5 10q-5 0 -17 -1.5t-17 -1.5q-8 0 -22.5 13t-16.5 18q-9 26 -9 41q0 6 14 12q-2 3 -10 7l-2 -3q-4 17 5 33l-3 115h-6
q-2 9 -7 9q0 1 4 4t5 5l-5 5q0 5 -2.5 17t-2.5 17q0 25 8 69q-6 40 -1 80l-6 5q0 23 -10 61q3 3 0 159q6 16 12 31q12 27 29 27q10 0 35.5 -11.5t30.5 -19.5q9 -12 17 -35q-1 -7 -1 -19h2l2 2q4 -33 2 -43q1 -59 6 -135q-16 1 -20 -3q5 -5 15 -6q0 -1 3 -2.5t3 -5.5
q0 -10 -10 -45l-3 -2q4 -7 15 -7q-3 -6 -3 -15q0 -3 3 -24q2 -15 -1 -25q-2 -1 -5 -1v-9q10 -19 10 -26v-48q-22 0 -28 1q-8 35 -1 66q-2 2 -7 6q-8 97 1 145q-1 43 -7 124v45q-1 30 -16 40q-6 2 -18 7q1 3 -4 11q-2 -1 -4.5 2t-6.5 3t-8 -1.5t-8 -1.5q0 -9 -1 -29t-1 -29
l3 -3q0 -9 -3 -35.5t-3 -38.5q0 -20 6 -27q-10 0 -10 -8q6 -1 7 -15v-26q1 -8 6 -28t5 -24v-144q-6 -3 -13 -11v-4q0 -1 11 8q5 -7 2 -20l2 -2q6 -39 0 -78q5 -25 0 -59q2 -23 5 -47q8 -43 26 -43h14q8 0 8 9q0 6 -6 13.5t-6 17.5q0 7 3 18q3 -1 10 12q10 -2 12.5 -12
t13.5 -8v2q-10 19 -6 79q0 15 -8 23v54q-4 0 15 -9q4 5 14 13q0 -3 1.5 -14t1.5 -17q-5 4 -5 -4q0 -10 7 -15q1 -8 -2 -30q8 -5 8 -20v-147zM100 608l-3 4l-2 12v-16h5zM141 488l2 3h-5v-12zM134 411v46q0 -5 -2 -15t-2 -14q0 -2 -2 0q-2 1 -2 -4t4 -8.5t4 -4.5zM147 393
l-4 13l-5 -2l4 -4zM157 279l-5 1l-13 -16l11 8zM145 129l-2 -11l11 7zM152 109l-9 -9l21 -5zM120 655l5 -5l3 5h-8zM72 765l7 -1l6 6l7 -8l-5 13z" />
    <glyph glyph-name="R" unicode="R" horiz-adv-x="171" 
d="M121 267l-3 -10v19l2 -2zM21 283l-1 -8l-3 -23l-2 31h6zM27 221l-8 -8l-3 4l5 2zM126 51l-5 -3v6h12zM146 611q0 -34 -4 -47q-7 -30 -36 -58v-4q5 -13 16 -39q-3 3 -5 0q-1 -10 -3 -28q2 -3 8 0l-9 -8q0 -3 3.5 -14t3.5 -15q0 -3 -2 -16.5t-1 -20.5q3 -11 9 -36v-24
q-4 -5 -13 -13q2 -3 7 -3q4 -1 4 2v-17q1 -13 1 -15q0 -5 3.5 -18.5t3.5 -17.5v-31q-8 1 -16 -3q2 -1 16 -1q0 -12 2.5 -29t2.5 -32q0 -24 -5 -61l-19 -4l-5 5q0 31 -3 89q-2 22 -2 17l5 15q-1 7 -7 25q3 3 7 10q3 2 -4 3q-5 -2 -6 13q0 10 2.5 13t2.5 4q0 5 -2 4l-4 -1
q2 10 -3 36.5t-5 27.5v33q5 1 17 9q-5 0 -15 3q-8 49 -8 47v74q11 0 13 2q-5 2 -13 11q11 -2 20 3q-7 7 -25 7q-25 0 -25 -26q0 -14 8 -28v-34l-21 -6q2 -2 16 -2q7 -64 5 -104q-2 0 -8 -3q2 -2 7 -3.5t6 -2.5q-1 -9 -9 -21q5 -8 5 -38q-3 5 -8 1q-6 -4 -8 -9q3 -3 15 5v-33
q-15 2 -21 -2q4 -2 26 -2v-141q-11 0 -13 -2q3 -4 10 -4q1 0 -15 -8q-8 7 -8 14q5 13 4 13t-3 -2l-3 -2v39q1 27 0 42q0 2 -2.5 11.5t-1.5 14.5q-6 9 -2 33h4q1 5 -4.5 21t-5.5 20t6 7.5t8 5.5q-6 5 -13 5v46q14 0 14 5t-9 9q-1 2 4.5 5t8.5 6q-2 3 -6 4q-5 2 -8 -1
q5 5 7 13q-8 10 -8 22q0 5 2 15.5t2 15.5q0 11 -6 19l-3.5 -7t-3.5 -6q3 15 10 43q-4 16 -3 29l-2 2q0 7 6 17q-10 8 -9 39q0 42 -1 46q-5 25 -5 20q0 20 28 38q1 -36 12 -111q11 1 21 2t20 10q0 -8 6 -6q0 -8 3 -30q9 84 9 97q0 -2 -8 83q-1 7 -11 16.5t-20 9.5q-3 0 -6 -1
q-4 4 -28 4q-1 -16 1 -19.5t2 -6.5q-6 -2 -20 -6q6 -3 20 -2v-22q1 -13 -23 -25l-5 2l-1 104q9 11 18 11q39 0 80 -22q12 -6 14 -18q3 -9 -1 -15q2 -7 9 -14q9 -44 9 -77zM53 388v0v0v0zM24 337l-3 -6l-9 -2l8 11zM54 284l-5 4l-4 4l5 2zM44 277h-6v12zM127 687l-3 3l-4 -4
l3 -3zM134 663l6 10h-6l-8 -17zM128 636l-2 9l-12 9v-6zM49 501v5h-15l6 -5h9zM28 405h-5l-4 -11l6 4zM41 371l-5 2l-4 6l5 -17zM57 341l-4 2l-5 -8l2 -13zM24 353l-1 4l-4 9v-13h5zM49 300q0 3 -3 10q-7 0 -2 -10q1 2 5 0z" />
    <glyph glyph-name="S" unicode="S" horiz-adv-x="192" 
d="M104 209l-10 5l-3 4l5 3zM132 67l-6 -1l-13 7h19v-6zM74 654l-3 -12l-9 -6l7 18h5zM81 608l-3 9l-3 7h6v-16zM74 605h-6v15l3 -9zM100 572l-5 25h5v-25zM94 572h-6v25l3 -17zM150 441l-4 -3l-18 22l12 -10zM51 519l1 -15l-10 26l5 2zM165 218q-3 -3 0 -136
q-8 -10 -27 -33q-12 -3 -12 6q-8 2 -9 -1.5t-4 -5.5q-12 3 -33 10q-1 0 -2 3q0 2 2 4q-8 3 -19 14q-21 51 -21 102l1.5 45t1.5 67q12 1 23 -4q0 -12 -1 -34q-3 0 -9 -3q2 -2 13 -2q0 -3 2 -11.5t2 -13.5q0 -3 -5 -6t-3 -8q3 -1 4 0q2 -29 4.5 -58.5t13.5 -58.5q4 -13 12 -13
q23 0 28 -4q4 -2 8 3q2 22 2 76q0 3 1 8.5t1 9.5q0 18 -4 27l-8 8q-3 5 0 1q-1 18 2 50q0 6 -10 93l-1 1v3l-1 -1q0 2 12 8q-14 4 -20 16.5t-12 24.5q-20 4 -37 27t-16 38q-9 8 -9 29q0 15 8 21q-3 3 -13 2q0 20 -3.5 63t-3.5 44q0 35 11 66q15 42 42 42q56 0 56 -104
q0 -4 -1 -16t-1 -18q0 -15 -10 -30q-4 4 -13 19q-3 -7 -3 -17q7 89 -17 143q-4 -5 -6 -9q-21 4 -27 -31q-1 -9 -1 -48q0 -12 4 -15q-2 -8 -2 -25q3 -28 5 -56q4 -36 13 -56q0 -2 -4 -6t-4 -6q-5 2 -17 7q-2 -5 -2 -10q1 -7 7 -7q12 0 19 13q0 -7 16 -17q23 -14 29 -21
q15 -15 24 -47q11 -43 14 -50q-6 6 -13 -2q15 -3 15 -23q0 -12 -5 -18q6 -16 13 -69zM51 565l-11 12h-6l2 -9zM51 532v29h-6l2 -14zM153 430l2 -10h7zM115 503l5 -8v9zM152 411l-3 -6l10 1zM116 146l-5 -18h10zM64 126l5 -7l2 10z" />
    <glyph glyph-name="T" unicode="T" 
d="M33 619l-2 -25v31h6zM72 555l-6 -11l1 20l5 11v-20zM42 547v-10l-4 17h6zM65 524l-4 -9l-1 7v4zM72 495l-3 10l-3 6h6v-16zM52 518l-3 -6l-1 6l-1 15zM80 466h-7l3 5l4 12v-17zM55 508l-5 -14l-5 2l4 12h6zM65 475l-8 -22l-1 29l7 9zM76 451l-2 -7l-8 -5l5 12h5zM181 37
q-17 -31 -37 -31h-18q-5 0 -24.5 20.5t-25.5 34.5q-12 28 -12 64l5 57q-2 26 -8 81q-2 -1 -5 -4t-8 -3q-15 0 -37 22q0 7 16 19q-1 1 15 1q0 -12 2 -14q11 11 18 11q1 5 9 14l11 9q-2 2 -16 2q-2 34 4 81q0 -3 4.5 -11.5t5.5 -13.5q1 2 2 20l-2 6q0 -3 -3 0q-2 2 3 15
q-3 2 -12 6q-3 2 -1 5q6 2 10 8q8 19 8 47q0 5 -3 8.5t-3 4.5q2 12 2 32h-2l-3 -3q4 23 -4 76q-12 -11 -11 -34q1 -29 -3 -37q0 53 3 67q1 45 -3 71q-6 -6 -6 -26q0 19 -4.5 56.5t-4.5 39.5q0 25 16 30q25 -26 24 -101v-48q-8 1 -17 -6q1 -2 19 -2q0 -11 -1.5 -34t-1.5 -31
q1 -12 7 -46q4 -28 4 -45q0 -12 -2 -23q0 -1 -3.5 -9t-3.5 -13q6 6 7 16q-1 9 -2 -33q-1 -23 7 -28q0 1 -10 -12q0 -8 -5 -28q3 -10 2 -11q-2 -4 -8 -10q5 -6 11 -6q2 3 4 12.5t4 12.5q4 -7 4 -14.5t1 -10.5t13 -3q5 0 14 -2.5t12 -2.5l-3 -31q-22 3 -39 -10v-142
q0 -11 16 -37t27 -28l2 -3q12 4 21 21q6 -8 19 -23zM77 346q0 15 -8 45q0 -39 0 -38q8 -2 8 -7zM49 270l-5 10l-6 -17zM79 198l-3 31l-6 12l4 -29zM192 79l6 -24l6 15zM79 276l1 -20l7 7zM152 277l-1 -7l10 3zM117 82l18 -6v7zM115 105l-6 -14h10z" />
    <glyph glyph-name="U" unicode="U" horiz-adv-x="230" 
d="M191 366l-4 -9v17h6zM185 226l-13 -9l4 7l6 6zM79 322l-8 -12l1 9l2 7zM77 281l-7 -13v13l4 9zM94 59l-2 -8l-5 2l8 19zM183 441q0 1 0 -40q0 27 -4 41q-1 -20 -6 -58q-10 1 -25 5q-3 -2 -4 1q1 47 5 135q-5 12 -8 28q-13 68 -13 180q0 4 2 14.5t2 15.5q6 4 16 12
q0 -1 5 -8t5 -11q8 -65 8 -136q-7 -6 2 -12q4 -41 4 -86q0 5 4 -34q2 -19 -6 -27l11 -10l-4 -5q0 -2 2.5 -3t3.5 -2zM153 559l-4 -4l-2 4l5 17zM200 488l-3 16l-3 15h6v-31zM197 479v-65q-7 -4 -7 -24v77q-1 -25 3 -46q4 17 4 58zM51 503h-5l-5 8l10 -3v-5zM216 43
q0 3 -12 -34q-6 4 -20 16q1 2 13 16q10 10 7 18q-42 -46 -78 -46q-19 0 -35 16q2 2 0 6q-13 6 -20 40q-4 25 -3 46v55q12 -7 21 -2q-10 6 -21 6q0 40 -7 107q3 1 10 14q-5 0 -9 -8q-3 22 -9 59q2 17 -1 98q-3 5 -9 14q0 7 3 13t5 5q2 -3 3 -3q-2 0 3 31q-7 3 -14 8q2 3 0 12
q-2 11 -2 13q0 -9 4 -13h3q4 28 -10 38v7q0 5 2 6t3 3.5t3 4.5q-8 5 -9.5 24.5t-11.5 21.5q3 3 3 14q0 7 -7 11q2 0 6 4q1 26 2 53q1 35 12 40q12 -5 14 -19q6 -65 20 -198q4 -29 -2 -50q1 -2 4.5 -4t2.5 -3v-21q11 -71 2 -114q3 -3 10 -3q-2 -11 -11 -30q0 -57 6 -68
q0 7 4 21q1 -7 7 -73q-6 -9 -6 -14q0 -4 5 -8t5 -7q-3 4 -5 0q1 -26 -1 -76q3 -4 6 -2q4 -15 8.5 -29t20.5 -14q41 0 41 83q0 13 -1 19q12 0 15 -3q4 2 4 4t-9.5 4.5t-11.5 6.5q-6 18 4 23q-1 2 -5 1q-8 34 -5 45q7 6 0 12q-7 0 -7 16q0 3 6 18t7 24q10 13 10 10q-1 1 -3 1
q1 0 5 3q-2 2 -5 4.5t-4 4.5q-4 -2 -15 -20q1 8 0.5 21t-0.5 16q12 0 19 6q1 -7 0 -20q15 -25 15 -33q0 -4 -7.5 -14t-9.5 -19v-3q12 -4 12 6q9 -36 9 -43q0 -5 -5 -9t-9 -7q4 -3 13 6zM164 592l-9 -2l-4 -7l9 2zM188 481l3 15l-4 16v-20zM156 400l2 15l-8 -5v-5zM176 354
v20q-10 1 -27 7q2 -3 6 -24q2 -13 15 -14q0 7 6 11z" />
    <glyph glyph-name="V" unicode="V" horiz-adv-x="201" 
d="M123 194l-11 -9l3 7l4 6zM101 130l-7 -3l-5 3l8 12zM92 58l-3 -5l-4 4l9 8zM109 47l-2 -20h-6l4 10zM109 678h-5l-4 9l5 2zM174 560l-37 -35q0 15 -6 41q2 -2 3.5 1.5t1.5 8.5q16 -1 21 2q-9 3 -31 3q2 5 9 40q1 4 -4 6q1 11 4 32q2 11 9 80q1 12 13 12q9 0 17 -8v-183z
M72 600l-3 8l3 44l2 -30zM173 552q-1 -17 -6 -51q-2 0 -11 2.5t-15 1.5q-11 7 -5 10zM92 559l-4 18l1 33l3 -26v-25zM82 505l-3 24l3 38l1 -20zM96 472l-8 16l1 65zM141 474l-9 -13l-4 4l6 19zM106 440l-6 -12v19h6v-7zM151 382l-7 -13l-2 25l5 2zM123 384l-5 -22v23z
M166 451q-3 -45 -12 -132l-11 -5q10 -9 10 -26q0 -9 -10 -51l-5 -12l3 -2q-2 -7 -2 -40q-1 -26 -10 -35l3 -30q-5 -17 -15 -48q3 -4 6 -11q-3 -12 -9 -39h-32l2 5q-2 26 -5 76q-1 11 5 21q0 1 -6 7l-4 33q9 0 6 -1q4 1 4 11q-9 4 -9 -5q0 11 -5 13q-4 34 -5 106
q-5 42 -13 119q7 25 7 52q0 5 -2 4q-3 -1 -4 -1q-2 25 0 52q-6 11 -14 87q-5 35 -14 104q-8 6 -8 20q0 5 2 11t2 9q18 2 28 -3q0 -2 5 -36q10 -53 7 -83q0 -2 -3 -8q-2 -4 0 -8q12 7 10 31q0 1 -2 -27q-1 -16 5 -25q2 17 7 49l5 -35h-5q0 -1 -3 -26q-2 -15 -9 -21
q6 -6 10 -16q-4 4 -8 -5q5 -15 -1 -63h-3q-1 0 -1 -5q0 -12 14 -40l-6 -52q-4 1 -6 -2t-2 -8q3 -3 8 -1q4 1 4 4q0 -4 3.5 -20.5t1.5 -22.5q-1 -1 0 -17q3 1 12 -8q4 4 4 28q0 -3 -3 -25q-2 -12 4 -20h-6q3 -10 11 -75l-3 -1t-5 -3q5 -1 12 -9q1 6 12 23q-1 2 -4 3.5t-4 3.5
q4 1 14 -2q2 2 9 15q-8 0 -11.5 -4l-3.5 -4v13q0 8 -5 8l3 17h4q1 1 3 27q3 3 8 10q0 9 -4 21q6 -6 13 -6q4 4 0 15l-21 -3q8 10 11 77q8 11 23 35l-12 2q-2 -3 -3 -12t-6 -9q-4 0 -7.5 2.5t-4.5 1.5q0 1 3.5 3t5.5 7l-4 51q10 12 5 22q6 -11 23 -11q-1 -2 -3.5 -5t-6.5 -7
q7 -7 8 -7q-2 -2 1 -5q10 4 10 21q8 -17 1 -30q-6 -7 -8 -20q0 -3 4 2t7 6zM92 361l-9 17l3 14h6v-31zM64 395l-2 -4l-4 4l9 8zM134 537l-5 2l-3 -8v-14zM127 394v25h-6v-12zM102 332v23l-5 -4l1 -12zM90 320l2 23l-6 10v-19zM120 314h-5v-8l1 -20zM133 280l9 6h-9l-7 -15z
M71 299l2 12l-5 17l-2 -29h5zM88 283l-9 9l-3 -4l-8 -6z" />
    <glyph glyph-name="W" unicode="W" horiz-adv-x="247" 
d="M127 276l2 -18l-6 11l-1 8zM119 255l-4 -8l-4 11l4 9zM54 273l5 -6l-11 5l4 9zM99 119l-11 -8l5 6l3 7zM92 103l-9 -9l2 6l3 6zM80 81l-4 -5l-3 4l8 9zM193 598q0 -5 -4 -7.5t-5 -4.5l5 -24q-8 0 -22 20q0 -5 6 -14.5t6 -13.5t-4.5 -18.5t-5.5 -21.5q-2 17 -5 77
q-2 37 -5 59q-1 9 -9 43q-6 31 -6 35q0 -6 7 33q4 0 21 -12q13 -39 16 -63q5 -36 5 -88zM208 584l-4 -9l-5 2l4 9zM60 710q0 -32 -10 -80q-3 1 -7 51h-3q-2 -3 -14 -25q-3 67 17 98q8 0 15 -12q2 -8 2 -32zM32 622h-6l-3 26l5 -12zM188 485q0 -13 -1 -39l-5 -3q-2 -11 3 -18
q-2 -1 -9 -6t-11 -5l5 84l7 -32q6 8 4 32q-3 26 0 34q7 17 7 19q4 -36 -5 -59q-1 -3 5 -7zM55 579q-8 12 -15 49q3 -4 15 -4v-45zM38 600l-8 1l-7 9h6zM29 541h-6v41l7 -27zM81 226q0 -3 -18 -21q12 -13 12 -19q0 -3 -2 -7q-1 0 -3 2.5t-8 4.5q-1 -14 -1 -16q1 -2 5 2
q3 -15 -5 -63q0 5 -2 13.5t-2 12.5q0 10 10 18q-7 6 -6 6q-10 9 -8 18q2 2 2 9q-4 8 -9 4q2 3 5 9q-1 12 2 38q0 4 -3 4l-3 -3q0 -11 -8 65q-1 2 7 14q-4 3 -11 24q-2 2 -5 0q-3 -3 -4 -3q15 16 6 40q2 0 8 1q6 5 4 10q-2 -1 -19 -10q4 17 11 50h4q-1 8 3 19q-1 5 -7 5
q0 3 5.5 9t5.5 10q0 3 -3 7l-9 7q0 3 2 13.5t2 19.5v2q-6 -6 -10 15q2 -1 7.5 -4.5t7.5 -5.5q2 2 3 6.5t3 4.5t4.5 6t4.5 8q0 -96 13 -129q-3 -9 -16 -25l-8 -24l13 7h3q4 -2 4 2q-1 -26 1 -43q0 -6 4 -18.5t4 -17.5q0 -3 -4 -6t-4 -4t4 -3q0 -10 4 -35.5t4 -28.5zM31 436
l-2 12h-6v-16zM61 361h-6l3 -40zM207 33q0 5 -2 5.5t-2 4.5v173q0 68 -8 117q0 -11 -4 -14l-5 6q10 18 10 24q0 10 -8 18q-1 4 1.5 9t2.5 8h-3q-2 1 -7 5q-3 3 -3 0t-3.5 -37t-3.5 -51q-3 0 0 1h7q0 -2 -10 -11q0 -28 4 -86q2 -27 -3 -44q-5 22 -13 34q2 9 -4 32
q-16 61 -35 61q-17 0 -24 -38q-6 -27 -5 -43q1 9 8.5 13.5t14.5 7.5q1 -4 1 -8q0 -14 -32 -62q3 3 8 3q6 0 6 -4q-7 -5 -20 -15q-4 -20 -10 -53q0 -17 2 -51q2 -15 11 -27h20q8 30 9 70q1 54 5 80q-3 0 -7 2q9 3 11 23q4 25 5 28q11 -22 13 -30q9 -30 23 -88q15 -86 29 -86
q21 0 21 23zM222 642l2 -18l5 -1zM208 668l-12 -14l12 -3v17zM103 542l-6 -24l14 19zM192 200l5 -11v11h-5zM157 176l-7 -11l11 5z" />
    <glyph glyph-name="X" unicode="X" horiz-adv-x="224" 
d="M74 316l-9 -8l-4 4l9 8zM29 338l-5 -9l-4 2l4 9zM168 190l1 -8l-11 -8l4 16h6zM187 652q-11 0 -14 -3q0 -6 5 -4q4 -30 1 -44q-2 -7 -19 -25q-4 -9 -10 -19.5t-22 -21.5q1 -6 5 -19q2 9 11 24l2.5 -7.5t2.5 -11.5q0 -15 -23 -60q-2 7 -7 21q-2 -3 -2.5 -12.5t-5.5 -8.5
q2 -3 1 -14q-3 4 -15 -9q-3 5 -3 8q0 2 6.5 4.5t10.5 5.5q-5 2 -16 12q-9 -10 -12 -10q3 3 23 15q9 5 9 23q-4 0 -5.5 -3t-2.5 -6l-2 2q-3 -4 -5.5 -8t-12.5 -5q2 2 -3 24q-8 10 -19 28q-1 7 -7 17.5t-14 34.5q-1 1 -5 6q0 -1 3 12q-2 9 -4 42q-1 42 -3 124q-1 3 11 25
q6 0 15 -5q8 -32 8 -41q0 -16 -10 -18q1 -2 6.5 -5t7.5 -4l-9 -79l-3 -3q2 -1 7 -4q2 -5 0 -20t-6 -11q-2 -7 8 -7q20 -20 20 -48q0 -7 -5 -14.5t-5 -13.5q0 -5 3 -5h5q0 -6 4 -22q3 12 10 36q3 -8 12 -23q2 6 5 31q2 18 12 30q-2 4 -4 7q24 14 24 58q0 13 -3 40
q-3 24 -2 33q3 -3 4 0q-3 16 0 37q4 24 14 31q12 0 13 -12q1 -7 5.5 -22t4.5 -19v-64zM167 559l-2 -9l-10 4l8 8zM102 543l-4 -19l-10 -2l8 21h6zM78 561l-12 -7v16h6zM144 374l-5 6v6l10 -5zM174 565q-2 -3 -3 5v-12q3 3 3 7zM165 351l-8 23l-2 -12l-4 -4zM164 320l7 10
l-13 16l2 -16zM187 328q0 4 -14.5 30.5t-17.5 36.5q3 -7 -7 -7q-1 4 -6 14t-5 14q1 -8 -2 -17l-7 -16q9 -16 23 -49q1 -12 5 -35h21q-9 -13 -6 -34q6 -9 5 -12h-4q-2 -3 0 -25q1 -19 -7 -22q0 50 -5 73q-8 -3 -8 -10q0 -89 -3 -209q13 2 28 11q2 45 5 135q2 29 -3 39
q7 26 1 57q7 17 7 26zM149 409q-3 4 -11 19q-2 1 -4 3q-5 2 -12 9q6 -12 1 -17q-6 6 -6 15q-10 -5 -15 -12q-7 7 -15 7q-7 -23 -14 -26q8 0 6 -6q-8 -4 -12 -21q-2 -8 0 -31q2 -20 -3 -30q-3 17 -3 43q-4 -8 -8 -20q-2 -14 0 -38q3 -27 3 -32q-4 -17 -4 -12q0 -5 2 -9.5
t2 -5.5q-1 -13 0 -77q0 -29 -1 -59q1 -38 12 -49q2 0 8 1.5t7 1.5q8 56 8 77v230q-5 0 -10 6q9 3 8.5 11t2.5 12q6 -19 4 -35q0 20 21 45q7 -7 7 -9q0 4 -3 8t-3 5q6 3 13 -4q0 11 7 17q4 -4 7.5 -10t4.5 -7zM25 305v-12l13 2zM77 284l-7 -14l12 7zM151 293l-1 -10l14 8z
" />
    <glyph glyph-name="Y" unicode="Y" horiz-adv-x="207" 
d="M158 347q-3 -7 -8 -34q0 1 -2.5 6.5t-2.5 10.5q0 12 13 17zM60 323l-4 -6v16h6zM49 340v-13l-6 12l4 11zM126 149h-5l-4 7l5 2zM126 119l-3 -26l-4 11l2 17zM106 630l-4 -7l-9 -7l8 15zM45 648l-3 -5l-12 8l8 -1zM154 473q-1 -8 -3.5 -13.5t-3 -6.5t-1.5 -5
q-7 -13 -16 -40q0 3 -4 6t-7 1q0 3 3 8.5t3 9.5t-4.5 17.5t-4.5 19.5q-1 7 0 52q0 33 -7 50q-4 1 -13 -4t-13 -5q-3 2 -21 8q-29 10 -32 34q2 18 -3 47q-6 29 0 60q-4 22 -3 67h22q15 -25 10 -59q-1 -8 -1 -57q0 -41 2.5 -48.5t31.5 -17.5q2 2 2.5 7t2.5 7q0 -4 5 -10
q10 13 11 35q1 21 -4 65t-5 43q0 36 19 39q11 -5 13 -22q1 -35 7.5 -107.5t13.5 -180.5zM141 386l-2 -6l-5 -5l2 11h5zM148 347h-6v19l3 -12zM165 169q0 -5 -5 -13q7 -33 -7 -80q-2 -11 -22 -25q-24 -15 -49 -15q-11 2 -27 9q-18 17 -18 31v58q16 -3 20 -3q-14 11 -20 11
q3 5 2 14t8 14l-6 6q5 60 9 128q-1 4 -4 4q16 0 12 0q3 -1 6.5 -4.5l3.5 -3.5q6 -9 2 -41q-4 0 -4 -3q1 12 -4 17q-5 -5 -5 -9t2 -6.5t2 -4.5q0 -4 8 0h4q-1 -12 -4 -33q-2 1 -8 -3q4 -1 13 -20v-25q-8 -3 -8 -15q0 -4 1 -11.5t1 -11.5q0 -8 -4 -13q6 -17 0 -45
q15 -7 19 -16q1 2 3 5q31 3 41 25q6 13 5.5 46t4.5 44q-6 27 5 40q-10 9 -10 38v16q0 14 -1 24q-6 9 -11 4q8 8 10 6v-2q6 2 10.5 4.5t2.5 13.5q-2 -2 -5.5 -7t-4.5 -7q0 5 1 18.5t1 17.5q0 5 -5 12.5t-7 7.5l6 2q1 -3 4 31q17 4 29 8l-9 -2q-5 -2 -3 -6q3 -3 1 -11
q-2 -9 0 -14q9 16 9 21q3 -15 1 -43q8 -18 -1 -59q0 11 -5 12q0 -7 1 -13q1 -10 9 -13v-110zM38 709l-2 6l-7 6l4 -12h5zM45 678h-6v-13l3 -6zM35 681h-6l1 -16l1 -10zM162 428q0 5 -2.5 14.5t-2.5 12.5q-5 -28 -22 -50q27 8 27 23zM49 532v-12l8 8zM69 475l-4 9l12 -3z" />
    <glyph glyph-name="Z" unicode="Z" horiz-adv-x="164" 
d="M157 272l-3 -6v12l8 -5zM70 218l-4 -9l-4 -11l4 21zM83 77l-21 14l-10 6l3 5zM146 637l-11 -17l2 10l5 8zM125 722q0 -4 -15 -76q0 -1 -2 -3t-2 -6q0 -1 5 -4q-4 -52 0 -108l3 -7q3 -2 -1 -3t-9 -16h3v-56q1 6 -7 20q4 4 0 19q-5 2 -16 1q-8 23 -8 50q0 2 3.5 21.5
t3.5 29.5q0 64 2 80l2 -3q7 5 7 9q0 3 -5 5q-1 11 5 15q1 5 1 8q0 15 -35 19.5t-40 14.5q17 18 23 18q1 0 9 -6h52q5 0 13 -5q8 -14 8 -17zM94 520l-6 9l-4 10h6zM28 548l-5 -9l-4 2l9 21v-14zM42 494l-4 -10v18h6zM41 449l-4 -7l-5 -4l4 11h5zM107 351l-5 -11l-4 -8l3 19h6
zM138 55h-26q5 -1 17 -6q-15 -5 -37 -5q-34 0 -43 11q-6 8 -6 37q0 5 5 13q-2 6 -2 15q0 10 3.5 31.5t4.5 29.5q1 44 0 56q3 0 8 4q-1 12 2 30q3 24 9 71q0 5 3 31q2 20 2 31q0 1 2 18q2 15 0 26l-4 3v2q0 10 2 16h7q3 -19 8 -54v-2q-3 -1 -3 -6t3 -6q0 -10 -6 -35t-6 -35
q0 -8 3 -13h-5q-4 0 -4 -20q2 0 5 3t4 2v-2q13 6 13 20q-21 -245 -21 -226q0 -7 8 -13q-3 -2 13 -2q2 3 24 -3h14q-1 -14 3 -22zM160 298l-9 -6l-1 -10l5 9zM135 283l-1 11l-4 -15h6zM99 426l5 8l-7 6zM30 264l7 -17l6 5z" />
    <glyph glyph-name="a" unicode="a" horiz-adv-x="192" 
d="M167 38q0 -13 -12 -30q-1 0 -5.5 3.5t-9 3.5t-5.5 5t-5 5t-12 -1.5t-12 -1.5q-34 0 -52 30q-3 8 -8 27q-8 51 -8 108q0 34 15 52q11 12 28 19q13 5 27 10q3 5 3 18q0 1 -4 41.5t-4 57.5q0 -5 -3 59q-1 46 1 76q6 59 5 62q-2 18 -11 59q-1 3 -3 10q-10 20 -31 20
q-11 0 -13 -20q-3 -3 0 -128q-8 -4 -23 -11q0 6 -7 8q0 14 -4 56.5t-4 44.5q0 81 51 81q71 0 75 -112q-4 -86 0 -254q31 -323 31 -298zM132 77q0 5 -4.5 19.5t-5.5 17.5q-8 64 -8 123q-41 -6 -41 -52q0 -62 11 -124q14 -8 25 -8h18q0 4 2.5 12.5t2.5 11.5z" />
    <glyph glyph-name="b" unicode="b" horiz-adv-x="198" 
d="M172 143q0 -41 -10 -60q-12 -24 -58 -35q-42 -10 -45 -27h-17q-11 5 -11 23q0 171 -3 240q-1 22 -8 77q-7 52 -7 54v123q0 4 -5 73t-5 74q0 40 18 40q5 0 10.5 -7t5.5 -12q11 -157 11 -167v-142q0 -4 4 -43q5 -46 6 -65q3 0 14.5 -3.5t16.5 -3.5q44 0 67 -55
q16 -39 16 -84zM140 144q0 72 -30 98q-15 12 -25 12h-20q-3 -92 0 -180l20 3h18q37 0 37 67z" />
    <glyph glyph-name="c" unicode="c" horiz-adv-x="184" 
d="M155 78q0 -29 -11 -49q-13 -26 -39 -26q-21 0 -35 19q-24 32 -35 107q3 16 5 45q-6 45 -6 35v110q0 5 -6 13q1 30 0 90q-14 228 -14 207q0 36 15 100q24 12 29 12q51 0 67 -42q9 -27 9 -42v-112q-4 0 -15 -10q-16 6 -16 15v110q0 2 -6 10q2 4 2 9q0 11 -10.5 21t-21.5 10
q-19 0 -19 -22q2 -115 10 -256q7 -135 7 -123v-104q0 -4 2.5 -12.5t2.5 -11.5v-28q-2 -29 6 -65q15 -57 35 -54q13 18 13 44q0 4 -3 16.5t-3 17.5q-1 14 -1 110q0 4 -3.5 15.5t-3.5 15.5q0 11 7 17t10 6q17 0 18 -29q2 -32 6 -102q4 -65 4 -67z" />
    <glyph glyph-name="d" unicode="d" horiz-adv-x="166" 
d="M142 47q0 -9 -12 -39q-5 1 -12.5 13t-14.5 12q-3 0 -10 -2t-12 -2t-12 6q-12 10 -17 13.5t-13 23.5q-12 33 -14 92q0 8 -4.5 27t-4.5 24q0 74 58 74q4 0 10 -7q10 -9 13 -11q6 36 6 63q0 1 -10 130q-10 140 -13 198q-1 6 -4.5 24t-3.5 24q0 31 19 31q14 0 18 -54l13 -168
q3 -26 7 -74l6 -203v-120q0 -4 3.5 -37t3.5 -38zM107 65v47q0 5 -3.5 10.5t-3.5 6.5q0 88 -2 92q-6 20 -39 36q-8 -32 -8 -44q0 -33 9 -84q11 -68 29 -68q5 0 11 2t7 2z" />
    <glyph glyph-name="e" unicode="e" horiz-adv-x="192" 
d="M154 202q-3 -137 0 -141q-3 -9 -8.5 -23.5t-21.5 -26.5q-3 -1 -14 -1q-32 0 -41 37q-16 61 -35 295q-17 202 -17 244q0 140 44 140q41 0 61 -82q11 -50 11 -95q0 -36 -19 -42q-8 -3 -55 -2q-2 -14 -2 -31q0 -19 4.5 -68.5t4.5 -83.5q0 -5 13 -113l8 -90q5 -53 20 -77
q4 2 10 11.5t6 15.5v135q0 5 -3.5 21t-3.5 20q0 3 8 28q8 -3 18 -11q3 -6 12 -60zM101 537v37q1 22 -13 73q-7 26 -15 43h-17q-5 -75 1 -153q17 6 44 0z" />
    <glyph glyph-name="f" unicode="f" 
d="M187 617q0 -63 -15 -80q-15 0 -22 21q-2 3 1 11t3 11q2 25 3 50q1 34 -9 48t-32 14q-8 0 -24.5 -12t-22.5 -22v-186q0 -4 2.5 -15t2.5 -15q0 -94 4 -157h3q20 -1 50 -14v-16q0 -8 -18 -11h-34q0 -168 3 -228q-4 -2 -17 0q-5 4 -11 11q-1 10 -5 35t-4 28v77.5v76.5
q2 -1 -26 -1q-12 0 -12 19q0 22 35 19q8 38 -3 88q-2 8 1 27q4 23 4 32q0 10 -3 29.5t-3 22.5v178q0 14 29 41t45 27q-9 0 33 -8.5t42 -100.5z" />
    <glyph glyph-name="g" unicode="g" horiz-adv-x="204" 
d="M176 171q0 -69 -2 -87q-4 -27 -13 -42q-18 -33 -35 -33h-17q-20 0 -38 8q-7 3 -18.5 33t-11.5 38v181h24q0 -3 3.5 -8t3.5 -10v-122q0 -5 2 -26.5t2 -25.5q0 4 13 -32q5 -1 22 -3q8 -2 16 5.5t10 16.5q8 34 8 107q0 80 -27 260q-1 6 -10 99q-18 -14 -37 -14q-17 0 -28 11
t-14 43q-3 19 -8 55q0 2 -2 13t-2 15q0 1 5 27q12 31 72 21q5 11 13 17h2q18 -2 24 -26q1 -2 3 -59q3 -105 24 -254q3 -13 7 -41q9 -104 9 -167zM110 562v33q0 6 -6 14q0 20 -3 54h-4q-20 9 -30 9q-19 0 -19 -20q0 -4 4 -22.5t4 -28.5q1 -53 19 -53q22 14 35 14z" />
    <glyph glyph-name="h" unicode="h" horiz-adv-x="186" 
d="M166 86q0 -37 -7 -53q-9 -4 -24 4q0 26 -3 86.5t-3 90.5q0 34 -20 57q-8 -5 -20 -21q-2 -6 -2 -15q-11 -11 -11 -17v-136l4 -28q3 -24 1 -33q-5 -3 -18 -9q-3 4 -10 9q-8 34 -8 69v120q0 4 -2.5 9t-3.5 9q-7 54 -7 141q0 9 -3.5 32.5t-3.5 26.5v106q0 5 -5.5 91t-5.5 91
q0 9 16 17q13 -6 16 -19q5 -60 13 -183q3 -97 9 -250q17 21 55 21q3 0 16.5 -20.5t16.5 -43.5q10 -60 10 -152z" />
    <glyph glyph-name="i" unicode="i" horiz-adv-x="88" 
d="M58 660q0 -5 -2 -12t-2 -10q-3 0 -10.5 -2t-11.5 -2q-12 0 -15 24q0 27 17 27q24 0 24 -25zM61 17q-8 -2 -23 -7q0 5 -7 14q0 16 -3.5 54t-3.5 60q0 8 -3.5 29.5t-3.5 25.5v377q0 12 15 20q19 -13 19 -44q0 -8 -2 -24t-2 -22v-168q0 -97 5 -150q1 -13 5 -53q4 -35 4 -39
v-73z" />
    <glyph glyph-name="j" unicode="j" horiz-adv-x="155" 
d="M93 708q-12 -11 -19 -11q-13 0 -18 11v27q16 7 18 7t19 -7v-27zM131 139q0 -60 -5 -80q-13 -46 -57 -46q-17 0 -31 17q-12 14 -15 33q-9 58 -9 81q0 -7 11 123q20 0 21.5 -3t1.5 -2q0 -3 2 -43q1 -31 0 -49q-8 -122 21 -122q15 0 19 4q10 8 10 83q0 60 -18 251
q-6 9 -6 11v109q0 4 -3.5 53.5t-3.5 53.5q0 27 8 46q21 -9 25 -42q1 -26 2 -51q7 -43 7 -59v-111q0 -4 10 -128.5t10 -128.5z" />
    <glyph glyph-name="k" unicode="k" horiz-adv-x="172" 
d="M152 39l-4 -21q-4 -5 -13 -5q-16 0 -41 95q-7 28 -26 88l1 -44q1 -47 4 -86q3 -35 3 -34q0 -6 -8 -19q-30 1 -30 71v103q0 2 -5.5 41t-7.5 59q2 61 1 180q0 11 -4.5 42.5t-4.5 36.5v106q0 4 -3.5 12.5t-3.5 14.5q0 31 18 31q16 0 19 -64v-104q5 -37 5 -36q0 -4 2.5 -19
t2.5 -20q0 -3 -1 -85q-2 -63 5 -100h3q14 47 18 66q9 39 10 74q0 18 -2 99q-3 99 -3 142q0 1 -2 21q-1 15 0 22q3 11 12 11q8 0 18 -15q1 -51 5 -168q4 -104 4 -107q0 -26 -16 -102q-2 -9 -13 -42q-9 -29 -9 -34q0 -4 6 -20q7 -20 9 -27q14 -55 22 -82q14 -49 29 -81z" />
    <glyph glyph-name="l" unicode="l" horiz-adv-x="88" 
d="M70 129q0 -65 -9 -100q-12 -5 -21 -5q-13 8 -3 65q4 22 -5 115q-5 64 -14 160q-2 17 -2 35q0 21 4 67q4 43 3 66q-1 29 -7 91q-6 59 -6 60q0 38 16 50q6 -4 14 -11q7 -81 13 -182q-2 -46 -3 -133q2 -54 11 -170z" />
    <glyph glyph-name="m" unicode="m" horiz-adv-x="259" 
d="M240 181q0 -140 0 -136q-2 -7 -3 -13q-4 -11 -16 -12l-11 11v143q0 5 -6 13q1 24 -1 86q-3 71 -3 64l-1 12t-2 37q-1 36 -1 96q-9 45 -12 109q-2 29 -5 45q-5 32 -18 49q-1 3 -16 6v-169q-20 -9 -19 -9q-2 0 -3 2q-11 18 -11 55q0 14 2 41t2 37q0 53 -28 53q-8 0 -20 -16
q-7 -10 -7 -57q0 -2 6 -66q6 -68 8 -96q2 -27 -2 -84q-4 -64 -4 -58q0 8 2 -44q1 -44 0 -67q1 -14 0 -39q-4 -29 -4 -41q0 -2 3.5 -30t3.5 -45q0 -42 -18 -42q-13 0 -15 32q-7 110 -7 101q0 35 3 55q1 6 1 120q0 1 -1 29.5t-1 48.5q0 152 -2 165q0 2 -3.5 12.5t-3.5 15.5
v122q4 0 15 11q7 -3 17 -13q17 17 25 17q5 0 23.5 -8.5t22.5 -8.5t12 3t12 3t15 -5.5t14 -9.5q10 -15 21 -40q23 -126 23 -180v-150q0 -54 13 -155z" />
    <glyph glyph-name="n" unicode="n" horiz-adv-x="210" 
d="M181 37q0 -12 -12 -24q-8 3 -18 12q-8 25 -10 65q0 46 -6 140q-6 46 -7 106q-2 46 -6 133q-3 18 -8 54q-3 21 0 59q4 46 4 61q0 3 -2 10t-2 11.5t-11 14.5q-11 1 -22 -5q-24 -13 -30 -29q-3 -8 -3 -35q0 -1 5 -46t6 -65q2 -77 7 -146q1 -26 9 -91q7 -59 7 -62v-176
q-21 -7 -17 -7q-2 0 -14 11v174q0 6 -6 14q-6 77 -12 147q-1 19 -3 58q-1 1 -4 22q-2 14 -1 23q0 3 3 9.5t3 9.5q0 16 -5.5 46t-6.5 43q0 7 -3 51q-6 9 -5 11v63q1 0 4.5 1.5t8.5 1.5q4 0 9.5 -8.5t9.5 -8.5t28.5 14t29.5 14q16 0 32 -23t16 -40v-48q-2 -48 5.5 -175
t17.5 -337q0 -8 4.5 -29t4.5 -24z" />
    <glyph glyph-name="o" unicode="o" horiz-adv-x="166" 
d="M147 192q0 -23 -3 -45q-1 -33 -1 -67q-3 -43 -23 -60q-10 -8 -35 -8q-38 0 -49 40q-6 24 -8 39q0 34 -6 102q-9 48 -9 68v407q0 20 17 50q15 16 48 16q1 0 21 -12q6 -4 13 -21q15 -33 17 -131q5 -76 14 -229q4 -64 4 -149zM115 195q0 17 -3 150q-3 7 -7 17
q-2 106 -12 300q-5 11 -11 27q-6 5 -22 13q-9 -10 -11 -23q-4 -36 -4 -57v-361q0 -5 5 -29q5 -28 6 -39q2 -40 7 -119q1 -9 6.5 -19.5t10.5 -10.5q4 0 6 1.5t6 1.5q17 0 18 23q5 81 5 125z" />
    <glyph glyph-name="p" unicode="p" horiz-adv-x="172" 
d="M141 627q0 -4 -4 -38q-4 -37 -5 -52q-2 -19 -9.5 -28.5t-23.5 -19.5t-22 -10q-9 0 -31 8q-2 -11 1 -31q3 -23 3 -24v-130l1 -49v-74q0 6 6 -119q0 -3 3.5 -9.5t3.5 -10.5v-31q-7 -1 -23 1q-10 13 -13 43q-3 44 -8 126q-1 13 -1 127v129q0 4 -7 35.5t-7 35.5v211q1 0 8 4
t11 4q14 -6 12 -22q3 -2 11 1t12 3q29 0 52 -12q17 -9 22 -28q8 -31 8 -40zM106 609q0 63 -19 63h-47v-157q13 3 37 3q5 0 17 5q2 3 7 39t5 47z" />
    <glyph glyph-name="q" unicode="q" horiz-adv-x="192" 
d="M167 156q0 -17 -10 -93l12 -39l-16 -12q-13 0 -22 11t-11 11q-4 0 -8.5 -2t-8.5 -2q-68 0 -68 76v149q0 5 -6 13q-1 8 -1 54v131q0 5 -7 53t-7 53v138q0 4 4 18.5t5 19.5q7 7 13 14q10 9 14 9q27 0 52 -13q28 -16 36 -40q9 -29 10 -76q-1 56 -1 -81q0 -12 3 -43t3 -34
v-126q0 -4 7 -94.5t7 -94.5zM135 107v96q0 5 -4 22.5t-5 22.5q0 32 -2 91q0 3 -3 11t-3 13v101q0 150 -6 216q-3 30 -59 47q-4 -16 -4 -200q0 -17 5 -48t5 -33v-128q0 -4 3.5 -33.5t3.5 -33.5v-145q0 -5 3.5 -11.5t3.5 -10.5q0 -22 17 -22q16 0 25 4q-18 35 -18 46
q0 5 6.5 11.5t13.5 6.5q3 0 5 -1q5 -9 13 -22z" />
    <glyph glyph-name="r" unicode="r" horiz-adv-x="175" 
d="M146 574q0 -38 -8 -58q-3 -7 -14.5 -17.5t-11.5 -14.5l27 -435q0 -34 -24 -35v5q-3 6 -6 6q-2 0 -3 -1q1 70 -7 167q-14 157 -18 288q-9 3 -24 -8q-1 -49 6 -162l3 -288q-4 0 -15 -11q-16 17 -16 19q0 82 -1 96q0 1 -2.5 7t-2.5 11v172q0 39 -7 191q0 20 -2 58
q-5 9 -5 15v139q1 0 5.5 5.5t9.5 5.5q34 0 84 -18q10 -7 12 -14q12 -25 15 -45q5 -26 5 -78zM115 574q0 38 -10 88q-3 21 -12 24q-22 9 -49 7q3 -68 10 -184q2 -3 7 -1q40 4 50 24q4 9 4 42z" />
    <glyph glyph-name="s" unicode="s" horiz-adv-x="195" 
d="M165 57q0 -5 -13.5 -22.5t-16.5 -17.5h-28q-14 0 -28 8q-21 12 -30 53q-6 33 -13 65q0 -1 1 9t2 31q1 31 1 80q20 0 25 -8q2 -43 7 -118q5 -52 13 -76q3 -6 22 -6q5 0 7.5 -1.5t6.5 -1.5q7 0 12 6v110q0 2 -6 10q0 15 -2.5 58.5t-2.5 63.5l-7 27q-3 15 -14 41
q-4 7 -28 22q-22 12 -29.5 29.5t-13.5 74.5q-8 76 -8 117q0 30 9 57q14 43 45 43q9 0 24.5 -10t17.5 -15q12 -31 12 -89q0 -38 -9 -56q-3 4 -15 4q-4 58 -12 119q-5 13 -20 13q-21 0 -21 -54q0 -130 19 -187q1 -6 19 -18t23 -18q28 -29 39 -104q6 -61 11 -122q-3 -3 1 -117z
" />
    <glyph glyph-name="t" unicode="t" horiz-adv-x="189" 
d="M175 53q-29 -39 -36 -39h-20q-13 0 -35 26q-20 23 -22 31l-8 42v131l-28 9q-20 7 -20 17q0 18 16 18q2 0 9.5 -2t22.5 -2v116l-2.5 29t-2.5 45t-4 78q-4 74 -6 118q0 3 -2.5 11.5t-2.5 12.5q0 33 17 33q15 0 21 -76q2 -53 4 -105q3 -88 12 -262q11 -4 30 -4q14 0 20 -11
q-1 -16 -20 -17q-25 -2 -32 -8v-135q1 -3 4 -10q-2 -13 13 -33.5t26 -20.5q4 0 13 13q13 17 18 22q11 -11 15 -11v-16z" />
    <glyph glyph-name="u" unicode="u" 
d="M191 48q0 -13 -11 -30q-12 3 -25 23q-27 -20 -41 -20h-17q-9 0 -20 11t-15.5 22.5t-5.5 37.5q-2 22 -3 43q-3 32 -3 100q0 10 -4 31t-4 30q0 62 -6 185q-3 26 -13 98q-10 63 -9 67v69q16 -1 23 4q-6 -6 6 -16q1 -51 12 -153q9 -47 21 -260q2 -66 4 -131q2 -60 13 -95
q4 -12 11 -12h17q15 14 21 29q8 22 8 49q0 3 -5.5 40t-7.5 54q-5 68 -5 131q0 6 -4 22.5t-4 21.5q-3 20 -1 53q2 48 2 53q0 6 -4 20.5t-4 20.5q-8 150 -8 141q0 29 2 40q1 1 6.5 4.5t7.5 4.5l12 -12q5 -51 14 -188q4 -93 17 -294q2 -27 13 -112q10 -79 10 -82z" />
    <glyph glyph-name="v" unicode="v" horiz-adv-x="187" 
d="M160 681q0 -133 -15 -352q-1 -12 -9 -70q-11 -80 -32 -241q-12 -7 -31 0q-28 292 -28 325v107q0 4 -17.5 118t-17.5 121q0 8 4 21q14 3 24 -4q5 -43 23 -156q15 -98 15 -102v-130q0 -2 7 -55q7 -57 9 -86q19 68 18 149q4 12 4 10v104q0 4 3.5 26.5t3.5 26.5v104
q0 41 6 67q0 14 1 28q0 21 9 26h4q13 -3 16 -8t3 -29z" />
    <glyph glyph-name="w" unicode="w" horiz-adv-x="215" 
d="M184 25q-5 -12 -17 -12t-18 18q-5 25 -15 72q-5 22 -30 105q-8 -43 -15 -101q0 -28 -3 -82q0 -2 -2.5 -6t-2.5 -6h-19l-10 15q-9 68 -19 205q-3 22 -9 68q-6 79 -6 151q0 39 -2 47q-9 31 0 69q2 13 -2 14.5t-4 2.5l4 2.5t4 8.5q0 7 -4 22.5t-4 23.5q0 15 5.5 40t5.5 35
q10 5 15 2q2 0 6 -5t4 -10q-3 -46 -3 -98q0 -85 9 -210q13 -191 13 -193q1 -5 5 -16q1 4 1 29q0 21 15 55q11 5 14 5q18 0 34 -56q3 -22 17 -67q-1 84 -11 455q-1 14 -7.5 49.5t-6.5 39.5q0 24 9 29h3q8 -1 17 -11q15 -71 15 -99v-220q0 -2 6 -70q6 -76 8 -111q-4 -3 0 -190
z" />
    <glyph glyph-name="x" unicode="x" horiz-adv-x="207" 
d="M161 281q0 -4 -1.5 -10.5t-1.5 -11.5v-130q0 1 -3.5 -37t-2.5 -57q-3 -12 -9 -12t-6 -2q0 -3 1 -2q-1 0 -15 1q1 71 5 233q-1 6 1 16q1 12 -13 41q-11 24 -23 48q-12 -26 -32 -76q-1 -3 2 -13t3 -14q4 -47 2 -84q0 -49 -6 -143q-4 -6 -18 -8q-12 21 -12 26v114q0 46 1 63
q1 10 0 44q-4 8 -4 19q0 5 22.5 59.5t22.5 59.5q0 14 -33 79q-3 5 -14 20q-8 12 -8 16v132q0 4 -2 25t-2 26q0 1 12 24q17 -8 18 -19q8 -57 8 -93q0 -15 -1.5 -33.5t-1.5 -26.5t1 -18q6 -13 17 -38q11 -30 22 -47q5 22 21 67q1 2 7.5 10t6.5 12v90q0 22 -1 44q3 29 22 31
q15 -24 15 -89l-3.5 -44.5t-3.5 -67.5q-8 -3 -20 -14q-25 -64 -25 -86q0 -5 26 -62.5t26 -61.5z" />
    <glyph glyph-name="y" unicode="y" horiz-adv-x="184" 
d="M153 203q0 -70 -10 -140q-2 -15 -21 -31t-30 -16q-5 0 -7.5 -2t-6.5 -2t-10.5 2t-10.5 2q-33 0 -33 72q0 -2 4.5 74.5t4.5 109.5q5 3 13 13q8 -7 16 -7q-5 -81 -6 -222q1 -13 18 -12q34 0 39 25.5t7 67.5q0 30 -1 68q-1 45 -1 36q0 4 -1.5 60t-1.5 59q0 12 -5 40
q-7 36 -9 47v47q1 34 -6 50l-17 -4q-7 -1 -14 -1q-40 0 -50 51q-4 19 -4 81q0 58 8 79q7 -7 14 0q12 -11 13 -33v-124q0 -21 19 -21h14q19 0 19 46q0 27 -5 50q-7 39 -4 63q1 11 18 19q12 -3 15 -31q1 -22 1 -44q11 -107 28 -322q3 -57 3 -150z" />
    <glyph glyph-name="z" unicode="z" horiz-adv-x="161" 
d="M132 19q-1 0 -9.5 -4t-13.5 -4h-48q-10 0 -18 7.5t-8 15.5q0 54 18 212q8 50 19 149q-3 42 -5 129q1 3 5 10q0 33 2 97q5 14 10 35v13q-6 4 -36.5 8.5t-36.5 16.5q16 19 22 19q4 0 8 -3.5t8 -3.5h46q15 0 23 -15q-16 -89 -16 -174q2 -50 1 -139q-5 -60 -20 -199
q-13 -122 -13 -126t-1 -9v-5h26q10 -4 30 -4z" />
  </font>
</defs>
</svg>
