<?xml version="1.0" standalone="no"?>
<!DOCTYPE svg PUBLIC "-//W3C//DTD SVG 1.1//EN" "http://www.w3.org/Graphics/SVG/1.1/DTD/svg11.dtd" >
<svg xmlns="http://www.w3.org/2000/svg" xmlns:xlink="http://www.w3.org/1999/xlink" version="1.1">
<metadata>
Created by FontForge 20230101 at Tue May 12 18:18:08 1931
 By Glenn Lewis
http://members.aol.com/vroomfonde/ttf/ - Tom 7 - Submerged Copyright (c) 1997 Tom Murphy 7; All rights reserved - Free! However, not to be resold (on CD, for instance!) - Tom Murphy 7 - 339 Still Hill Rd - Hamden CT 06518.1830 - USA - ImightbeTM@aol
</metadata>
<defs>
<font id="Submerged" horiz-adv-x="655" >
  <font-face 
    font-family="Submerged"
    font-weight="400"
    font-stretch="normal"
    units-per-em="1000"
    panose-1="0 0 0 0 0 0 0 0 0 0"
    ascent="800"
    descent="-200"
    x-height="652"
    cap-height="684"
    bbox="19 -167 750 800"
    underline-thickness="20"
    underline-position="-143"
    unicode-range="U+0020-007A"
  />
<missing-glyph horiz-adv-x="800" 
d="M50 0v800h700v-800h-700zM700 50v700h-600v-700h600z" />
    <glyph glyph-name=".notdef" horiz-adv-x="800" 
d="M50 0v800h700v-800h-700zM700 50v700h-600v-700h600z" />
    <glyph glyph-name=".null" horiz-adv-x="0" 
 />
    <glyph glyph-name="nonmarkingreturn" horiz-adv-x="500" 
 />
    <glyph glyph-name="space" unicode=" " horiz-adv-x="500" 
 />
    <glyph glyph-name="A" unicode="A" horiz-adv-x="669" 
d="M652 202q0 -16 -5 -44q-10 -58 -11 -62l-3 -81q-4 -86 -66 -122q-39 -22 -154 -39q-96 -14 -159 -14q-58 0 -126 12t-83 27q-10 10 -13.5 32t-3.5 58q0 31 -1 63.5t-1 63.5l10 141q0 83 39 115q23 19 87 32l-80 -311v-15q9 0 48 -12t72 -12q19 0 29 53q3 14 14 89t17 103
q10 45 19 45q24 -6 53.5 -11.5t55.5 -8.5v-66l23 -205l6 -6q60 15 92.5 25.5t32.5 25.5q0 12 -6 43.5t-11 56.5q-3 45 -4 68q-5 69 -7 72q-7 4 -12 6q-18 8 -42 12q-67 18 -133 36q-80 18 -125 18q-20 0 -37 -3q23 69 41 131q37 123 37 157q39 0 82.5 8.5t53.5 8.5
q29 0 62 -4q11 -1 27 -4v-26q4 -17 8 -33q3 -23 9 -78q0 -1 17 -123q9 -65 9 -106q58 0 101 -43q38 -38 38 -73zM365 415v118l-25 5q-3 0 -22.5 -47.5t-19.5 -51.5q0 -11 21.5 -15t30.5 -9h15z" />
    <glyph glyph-name="B" unicode="B" horiz-adv-x="670" 
d="M636 89q-8 -69 -12 -103q-13 -103 -17 -110q-10 -17 -58 -17q-13 0 -72 2.5t-82 2.5l-108 -17h-85q-9 0 -26 6t-31 11q-6 1 -16 2t-17 1h-22q-28 8 -36.5 45.5t-8.5 97.5q0 55 1 79.5t2 43.5q0 3 -5 54t-5 66q2 17 2 27q5 58 8 67q8 24 32 34q24 7 48 15q-4 15 -6 24
q-6 27 -6 44q0 48 3 125t3 126q6 -1 18 -1t35 4t39 4q93 0 167 -46q83 -52 83 -134q-9 -44 -30 -69q-36 -43 -104 -75q18 -7 35 -7q10 0 27 1.5t19 1.5q12 -5 25 -10t34 -9q47 -2 76 -4.5t43.5 -9.5t17.5 -17q2 -17 3 -31zM316 570q0 25 -29.5 38.5t-67.5 13.5
q-11 0 -13 -25v-30q0 -30 -4 -46v-34l14 -3q37 0 68.5 29.5t31.5 56.5zM484 155q1 16 1 23q0 17 -9 40.5t-40 77.5q-23 40 -61.5 69.5t-58.5 29.5h-186l12 -154v-222q11 -4 31 -4q7 0 53 2t90 2q67 0 115 36q53 40 53 100zM344 195q0 -59 -63 -71q-31 -6 -62 -11l-2 194h10
q69 -19 89 -36q28 -23 28 -76z" />
    <glyph glyph-name="C" unicode="C" 
d="M622 -46q0 -53 -22.5 -74.5t-75.5 -21.5q-34 0 -104 10l-123 -14q-6 -1 -11 -1q-11 0 -28.5 3.5t-50.5 13.5q-41 8 -81 16q-38 19 -38 101q0 63 -12.5 135t-25.5 144q0 49 22 66q17 13 58 13q13 0 26.5 -0.5t28.5 -0.5q5 16 5 37q0 16 -2 29t-4 32q0 90 42 160
q48 80 125 80q12 0 42 -13q79 -35 146 -116l-40 -40q-27 29 -41 43q-26 26 -61 26q-37 0 -84.5 -34.5t-62.5 -74.5q-5 -14 -5 -29q1 -15 1 -22q0 -13 -4 -24v-28t3 -14q28 5 69 9.5t89 4.5q16 -3 56.5 -5.5t94.5 -2.5q33 0 47 -25q11 -20 11 -57q0 -19 -2 -39t-3 -37v-134
q0 -3 7.5 -49t7.5 -67zM532 186q-9 8 -15 12q-19 13 -47 26q-16 -45 -35 -63q-26 -25 -72 -25q-59 0 -88 47q-33 53 -33 172h-15q-19 -6 -37 -11q-6 -7 -6 -63q0 -95 43 -155q52 -72 153 -72q33 0 47 3t35 16q8 6 40 60q10 18 30 53z" />
    <glyph glyph-name="D" unicode="D" horiz-adv-x="690" 
d="M652 46q-1 -40 -3 -63q-7 -68 -25 -104q-14 -28 -70 -39q-35 -7 -87 -7h-228q-95 0 -139 34t-44 114v83q0 10 -4 31q-7 31 -13 63q-3 38 -3 65v23q8 88 36 103l64 18q0 52 3 135t3 136q0 33 16.5 46.5t64.5 13.5q98 0 174 -62q70 -58 87 -138q10 -94 11 -104.5t51 -16
t73 -29.5t23 -79q0 -14 -3 -25q-9 -34 -9 -40q9 -30 15.5 -69t6.5 -89zM370 381v32q-39 104 -61 129q-17 19 -82 45h-8v-206q12 -4 35 -4q17 0 51 3t46 3q11 0 19 -2zM493 370v13q-32 3 -47 3q-12 0 -36.5 -2.5t-36.5 -2.5v-15q0 -29 -1.5 -45.5t-10 -34.5t-60.5 -62.5
t-74 -50.5l-11 202q-36 0 -50.5 -3.5t-29.5 -7.5v-126q0 -9 5 -81.5t4 -78.5q6 -1 25 -9q12 -5 45 -5q87 0 148 53q46 40 87 121q6 9 13.5 19.5t11 22t11.5 57.5q4 24 7 33z" />
    <glyph glyph-name="E" unicode="E" horiz-adv-x="665" 
d="M626 128q0 -27 -5.5 -93t-13.5 -96q-13 -48 -39 -65q-20 -13 -62 -13q-15 0 -30 0.5t-31 0.5q-86 0 -128 4l-70 10h-74q-21 -2 -33 -2q-35 0 -54 27q-27 39 -27 135v68q-4 23 -7.5 52t-3.5 47l8 47q1 8 1 15v30q0 59 8 88q13 49 50 49q3 0 15 -2q0 38 1.5 86t1.5 54
l-9 114q0 20 12 20q30 -4 52 -6q67 -6 139 -6h37q55 0 97.5 -6t42.5 -25q0 -40 -5 -52t-21 -12q-4 0 -22 2t-34 2h-109q-43 0 -59 -11.5t-16 -32.5q0 -52 2 -65t5 -17t47.5 -13t92.5 -9q1 -6 1 -15q-1 -14 -1 -23q58 -8 117 -15q43 -10 71 -70q9 -20 31 -98.5t22 -103.5z
M530 61v89l-292 17q5 10 5 20q0 7 -2.5 22t-2.5 22q0 60 4 102q1 15 5 34q1 1 10 3t20 4q17 -1 43.5 -2.5t62.5 -1.5q-1 8 -1 11q0 16 1 32l-247 17q0 -18 -0.5 -39t-0.5 -44q0 -24 1 -32.5t9 -33t8 -40.5v-91q0 -12 -2 -33t-2 -30q0 -22 8 -32.5t32 -10.5l215 24z" />
    <glyph glyph-name="F" unicode="F" horiz-adv-x="660" 
d="M618 159q0 -1 -14 -84q-9 -55 -16.5 -117t-26 -83t-47.5 -21q-10 0 -38.5 4t-37.5 4q-37 0 -70 -8q-74 -18 -93 -18q-43 11 -65 16q-66 17 -71 21q-14 11 -33 92q-24 99 -24 198q1 13 1 23q5 77 5 135q0 39 15 51t57 12l-10 114v106q0 6 -5.5 30t-5.5 47l6 3q13 -5 24 -7
q38 -10 77 -13l311 23v-58t1 -58q0 -14 -39.5 -17t-55.5 -5t-44 -2q-42 0 -74 1t-60 2q-1 -4 -1 -29q0 -24 1 -48t2 -35h94q6 0 8.5 -1.5t6.5 -3.5l1 -52h-78q-21 6 -53 10.5t-37 4.5q-8 -3 -13 -4q-32 -9 -53 -9q0 -35 -2 -72t-4 -69l10 -205q10 5 19 5q2 0 24 -3t51 -3h23
q15 2 15 22v36.5t1 41.5q0 58 -2.5 116t-7.5 98q5 0 22 -1t27 -1q28 0 44 7t16 25l26 -2q58 -16 117 -31q76 -45 76 -188z" />
    <glyph glyph-name="G" unicode="G" horiz-adv-x="670" 
d="M642 -35q0 -17 -15 -47t-31 -37q-2 -1 -6.5 -2t-12.5 -1q-5 0 -18.5 1t-20.5 1t-15.5 -1.5t-42 -15t-57.5 -13.5l-170 17h-105q-63 0 -87 36q-16 24 -16 71v36q-10 72 -13.5 117t-3.5 96q0 38 1 64.5t4 36.5q16 51 44 54.5t36 14.5q5 14 8 28t11.5 56.5t46.5 115.5
q28 53 54 68q18 10 37 12.5t61 2.5q76 0 130 -15q85 -24 85 -76q0 -14 -26.5 -35.5t-33.5 -21.5q-20 21 -46 36q-31 18 -69 18q-64 0 -110 -93q-36 -99 -39 -108q5 -1 16 -1q17 0 40 2.5t27 1.5q9 -2 105 -14t100 -12h63q35 0 49 -25q10 -18 10 -58q0 -10 -1 -30t-1 -29
q5 -27 8.5 -94.5t3.5 -156.5zM610 264q0 6 -1.5 22.5t-1.5 29.5l-34 8h-29h-24h-19h-17h-14h-12h-40.5t-41.5 1h-14v-71q1 -9 5.5 -14.5t18.5 -5.5q14 1 21 1q19 0 19 -18q0 -41 -14 -62q-17 -25 -56 -25q-55 0 -98 72q-36 61 -36 111v65l-112 12v-80q0 -102 52 -183
q45 -70 100 -89q11 -4 18.5 -5t18.5 -1q6 0 18 1t18 1q88 0 134 38q55 45 55 146h40q12 -3 20 -3q14 0 20 10t6 39z" />
    <glyph glyph-name="H" unicode="H" horiz-adv-x="640" 
d="M490 658l-17 -137v-160h-353l-12 311h137q4 -20 5 -42.5t1 -54.5t-1.5 -78.5t-2.5 -101.5q17 -1 42 4t61 5l12 271q13 -2 62.5 -7t65.5 -10zM604 259q0 -50 -7 -89t-15 -81q6 -16 11 -36t5 -50q0 -36 -5 -68.5t-16 -51.5t-23 -25.5t-27 -6.5q-10 0 -32 5t-33 5h-109
q-13 -5 -36.5 -9t-49.5 -4q-14 0 -38.5 9.5t-52.5 9.5q-13 0 -23 -2q-35 -7 -37 -7q-14 0 -21.5 4t-15.5 14q-24 30 -35 66q-16 53 -16 122q0 54 5.5 86t5.5 34v57q0 3 -3.5 20.5t-3.5 28.5q0 29 19.5 51.5t40.5 22.5q8 -3 18 -3v-314h140l9 134v120q27 6 40.5 7.5t36.5 1.5
l40 -3q0 -25 -1 -34t-2 -16q0 -10 2.5 -26.5t9 -63t6.5 -97.5q0 -4 -7.5 -3.5t-10.5 0.5q8 -3 18 -3l88 1v293h8q75 -21 96 -43t21 -56z" />
    <glyph glyph-name="I" unicode="I" 
d="M622 87q0 -6 -13 -95q-4 -29 -13 -88q-7 -4 -13.5 -8t-15.5 -12t-81 -22t-126 -14q-58 8 -133.5 14t-129.5 6q-41 0 -51 18t-10 73v31q0 7 11 109q6 56 6 179q0 86 39 101q27 5 36 8q87 28 127 28h8q5 -2 7 -2q7 24 7 46q0 8 -2 39t-2 60q-18 -1 -35 -1q-32 0 -56 6
t-24 23l12 98l320 -32q-3 -15 -5.5 -39.5t-2.5 -57.5q-7 -1 -16 -1.5t-13 -0.5q-15 0 -40 2.5t-34 2.5q-2 -7 -2 -25q0 -20 2 -37q7 -60 7 -63q0 -22 -7 -35h77q39 0 94 -25q72 -33 72 -80v-206zM499 90v20q-48 0 -106 9q-10 1 -26 5l-3 27l18 247l-95 16q-12 -1 -15 -8
q-10 -20 -10 -85q0 -53 1.5 -120.5t1.5 -76.5q-5 -4 -7 -5t-16 -6q-1 3 -39 12q-12 3 -38 9q-12 0 -23 -21v-90l340 -2q0 16 8 43q2 9 9 26z" />
    <glyph glyph-name="J" unicode="J" horiz-adv-x="695" 
d="M652 250q0 -12 -17 -115q-9 -55 -9 -89q0 -33 5 -63.5t11 -64.5q0 -42 -35 -58q-26 -12 -76 -12q-32 0 -70 18t-69 18q-11 0 -65 -18q-30 -10 -53 -10l-69 8h-80q-38 0 -55.5 48.5t-17.5 110.5q0 27 5 55.5t11 62.5q0 33 -3 84t-3 84q0 42 41 58q29 11 87 11h100
q32 0 46 14t14 54q0 10 -1.5 25t-2.5 24l-1 86q-7 0 -51.5 -8.5t-64.5 -8.5l-42 1l-2 122q3 0 32 -6q14 -3 25 -3q50 0 113 1.5t72 1.5q26 -5 62 -9.5t78 -4.5l-2 -100l-146 8q3 -10 5 -40t2 -96q0 -41 5.5 -55.5t17.5 -14.5q1 0 18.5 3.5t28.5 3.5q5 0 12 -2q25 -8 54 -16
q18 2 28 0q62 -13 62 -108zM438 259q0 32 -4 55t-4 59l-97 8v-111q0 -21 -20 -62q-25 -50 -52 -50q-28 0 -43.5 35.5t-15.5 72.5q2 14 2 23q0 5 -2 15h-12q-19 -7 -58.5 -7t-39.5 -54q0 -70 29 -113q36 -54 113 -54q125 0 167 42q37 37 37 141z" />
    <glyph glyph-name="K" unicode="K" horiz-adv-x="645" 
d="M610 180q0 -49 -8 -91t-26 -90q-14 -37 -28 -75q-32 -74 -84 -74h-16q-41 0 -101 6q-141 12 -186 16q-108 10 -108 75v77q0 18 2 33q7 53 7 64q0 33 -12 69t-12 59q0 96 35 115t35 127l-12 187h63q14 -8 20.5 -9.5t25.5 -1.5v-209q31 10 82 71t59 61q24 -16 36 -26
q36 -31 36 -53q0 -12 -36 -50q-43 -42 -86 -83q27 3 50 3q18 0 33 -1t83 -7l74 -6q7 -2 14 -12q4 -7 9 -14q15 -10 23 -18q28 -27 28 -143zM456 122q0 12 -39 62.5t-81 125.5q-28 50 -38 55q-24 13 -125 13h-50.5h-23.5l-2 -166l8 -171q24 0 47 -0.5t45 -0.5q15 0 19 1
l3 272q20 -16 49 -68.5t34 -60.5q23 -40 47 -80q16 -28 16 -46h8q19 23 51 38.5t32 25.5z" />
    <glyph glyph-name="L" unicode="L" horiz-adv-x="650" 
d="M610 -31q0 -49 -10 -69.5t-44 -20.5q-24 0 -62 1t-62 1l-227 -7q-6 0 -14.5 -1t-17.5 -1q-51 0 -72.5 22.5t-21.5 75.5v57q0 25 -7 58q-16 76 -16 103v47.5t3 48.5l9 69q4 15 12.5 22.5t24.5 7.5q14 0 14 7q0 54 -1 140t-1 140h22q16 -5 55 -6t41.5 -7t4.5 -49t2 -49
q-4 -36 -5 -54q-5 -57 -7 -61v-60h75l151 -14q6 -2 12 -10t11 -10q40 -12 60 -23q60 -34 60 -91v-78q3 -11 5.5 -27t2.5 -41q0 -32 1.5 -74t1.5 -47zM496 47v106q0 16 -29.5 19.5t-49.5 3.5q-5 0 -42 -5.5t-45 -3.5q-30 5 -50 7t-38 2l-12 207q-15 0 -41 -3t-37 -3
q-10 0 -18 1t-15 5v-50q2 -5 14 -81q4 -24 12 -74v-123h154l165 -13z" />
    <glyph glyph-name="M" unicode="M" horiz-adv-x="710" 
d="M672 253q0 -10 -11 -58t-11 -74q-1 -10 -1 -14q0 -15 4.5 -67.5t4.5 -77.5q0 -45 -29.5 -73.5t-75.5 -28.5q-26 0 -38 3.5t-19 3.5h-71q-1 0 -11.5 3.5t-16.5 3.5q-19 -8 -41.5 -14.5t-47.5 -6.5h-14q-6 1 -9 1q-19 0 -51 1t-52 1q-93 8 -124 24q-39 20 -39 73v254
q0 37 11 82t26 61q0 -65 2 -109q7 -154 7 -174q0 -25 28 -25q7 0 15 1q38 5 51 5h18t25 -4l5 23q-6 20 -11 77.5t-5 121.5v118h74q-36 46 -54 82t-35 72q-4 -12 -4 -15q6 -36 10.5 -74t4.5 -65q-68 0 -87 -8q-21 -11 -41 -21l6 346q5 -4 17 -4q24 1 61 2.5t99 1.5l80 -200
q6 13 15 38q13 34 30 88q7 22 14 30t17 8q5 0 28.5 -4.5t42.5 -4.5q31 0 57 4q65 10 79 10q1 -46 1.5 -149t0.5 -157q37 -3 53 -38q12 -27 12 -73zM493 383l-11 144q-32 -59 -54.5 -89t-42.5 -57zM630 61l-17 177v63q0 66 -19 70q-44 5 -87 10h-11l8 -68v-272q7 -3 15 -5
q4 0 29 6q72 18 82 19zM376 378q-41 0 -53.5 2t-16.5 4q-7 -1 -21 -2t-18 -1q12 -12 27 -46q9 -21 27 -21q11 0 30 28q12 18 25 36z" />
    <glyph glyph-name="N" unicode="N" horiz-adv-x="680" 
d="M656 12q0 -81 -61 -109q-41 -19 -133 -19h-43q-55 0 -96 7q-42 9 -84 17q-27 -7 -57 -12.5t-52 -5.5q-43 0 -62 9q-26 12 -26 45v14q0 18 -0.5 35.5t-0.5 35.5v12l11 103q-1 9 -8.5 47t-7.5 85q0 117 24.5 121t24.5 90q0 39 -1 102t-1 103h34l93 -5q8 -3 48 -68
q100 -161 121 -186v248q29 0 49 -3.5t39 -6.5q10 0 20 10l3 -303q31 -6 51 -12q69 -21 69 -119v-63q18 -51 32 -92.5t14 -79.5zM250 404l-54 91l11 -90q10 2 13 2q7 0 18 -1.5t12 -1.5zM496 94l-6 24v257l-94 23h-140q6 -5 18 -33.5t21 -47t13.5 -32t13.5 -52.5
q13 -55 26 -94t28 -81q63 0 86.5 -3t30.5 -2q0 27 0.5 32.5t2.5 8.5zM205 47l-15 163l15 193h-126v-365z" />
    <glyph glyph-name="O" unicode="O" horiz-adv-x="680" 
d="M647 38q0 -61 -36.5 -110.5t-76.5 -49.5q-12 0 -38 6q-44 10 -67 14l-160 -24q-20 0 -43 6q-23 8 -28 9q-50 6 -75 12q-47 11 -63.5 44t-22.5 55q-2 7 -4 17l-6 286q0 58 18.5 77.5t67.5 19.5q10 101 51 169q49 83 125 83q69 0 106 -14q50 -19 69 -70q7 -19 11 -39
q9 -42 14 -58q13 -39 21 -76q3 -16 8 -21q36 -7 59 -15.5t27 -30t5.5 -31t1.5 -11.5q-1 -10 -1.5 -25t-0.5 -30q0 -17 25 -115q13 -51 13 -78zM398 388q-16 81 -49 128q-25 36 -43 36q-36 0 -66 -66q-9 -22 -22 -66v-23h126q10 0 25 -3t29 -6zM521 329q1 17 1 23
q0 12 -8 18.5t-33 9.5q-9 0 -18.5 1t-14.5 1q-12 0 -22.5 -0.5t-19.5 -0.5v-60.5t1 -60.5q0 -60 -25 -98q-31 -48 -66 -48q-38 0 -73 43q-31 38 -31 66q0 46 1.5 103.5t1.5 64.5q-4 0 -11 -0.5t-17 -0.5q-18 0 -37.5 2.5t-36.5 7.5q0 -2 -3 -50t-3 -77q0 -65 3.5 -93
t10.5 -43q35 -74 105 -104q44 -19 98 -19q80 0 119 51q28 37 55 141q14 55 16 64q7 33 7 59z" />
    <glyph glyph-name="P" unicode="P" horiz-adv-x="620" 
d="M588 -38q0 -28 -9 -58q-13 -42 -35 -42q-29 0 -74 4t-93 8q-26 -5 -56.5 -8.5t-53.5 -3.5q-42 0 -68 8q-30 13 -59 26q-10 2 -23.5 -2t-16.5 -4q-17 0 -23 11t-6 27q1 10 1 12q-12 44 -17 72q-17 86 -17 155q0 88 -2.5 118.5t-3.5 48.5q0 43 51 47t51 7q-6 18 -11 39
t-5 40q0 33 -3 87t-3 88q0 28 21.5 38t54.5 10q92 0 161 -66q65 -63 65 -139q0 -23 -8 -53t-17 -45q33 -10 54.5 -13.5t36.5 -3.5h12q21 0 40 -7.5t28.5 -27t9.5 -50.5q0 -11 -1.5 -25.5t-3 -28t-1.5 -25.5q0 -42 12 -135t12 -109zM294 486q0 75 -74 104h-23
q11 -30 18.5 -64t7.5 -68v-28q0 -9 0.5 -16.5t5.5 -15.5q39 17 49 27q16 17 16 61zM386 384q-37 0 -52 1t-24 3q-19 -1 -69.5 -2.5t-105.5 -1.5q7 -34 13 -94l-12 -153q0 -2 2 -51.5t14 -49.5q23 5 47.5 9.5t49.5 4.5l-12 274q10 -1 17.5 -1.5t11.5 -0.5q49 0 82 25
q29 30 38 37z" />
    <glyph glyph-name="Q" unicode="Q" horiz-adv-x="685" 
d="M646 293v-195v-41v-38q-3 -11 -5 -20.5t-17 -42.5q-18 -40 -30.5 -48.5t-94 -26t-95.5 -17.5q-26 7 -80 12.5t-148 5.5q-68 0 -101 51q-27 42 -27 113q2 40 3 64q5 73 14 126v13q0 21 0.5 45t7.5 36q11 21 46.5 25t39.5 18l48 176q36 93 177 93q58 0 95 -38
q25 -25 65 -129q11 -27 15 -70q1 -10 35 -15t45 -35q7 -18 7 -62zM456 387v26q-12 37 -23 74q-24 55 -66 55q-25 0 -54 -61q-25 -51 -37 -103l54 9h126zM567 190q0 50 -1 77q-4 106 -4 123q-7 -3 -40.5 -6t-62.5 -3v-188h-9q-7 21 -16 35t-17 14q-17 -5 -25 -9
q-26 -13 -26 -33q0 -5 11 -25q29 -52 30 -54q-6 -2 -25 -9.5t-25 -7.5q-50 0 -75 81q-16 53 -16 107q0 17 2 36t2 26q0 11 -2 19q-36 -3 -41 -3q-7 1 -15 1q-10 0 -19 -1q-27 0 -34 -9t-7 -42q0 -41 23 -125q7 -28 24 -78q14 -56 59 -86q39 -26 91 -26q45 0 77 8q10 2 23 8
q6 0 15 -20t31 -20q20 0 30.5 4t10.5 18q0 15 -15 35t-15 27q0 8 30.5 40.5t30.5 85.5z" />
    <glyph glyph-name="R" unicode="R" 
d="M630 159q0 -17 -8 -55q-2 -13 -9 -37q-8 -56 -15 -112q-20 -82 -75 -82q-7 1 -10 1l-218 16q-7 0 -60 -13q-29 -7 -61 -7q-70 0 -91 27q-10 13 -24 82q-7 30 -9 42q-5 27 -5 40v206q0 71 25.5 95.5t85.5 24.5v186q0 20 -3.5 48.5t-3.5 38.5q0 24 21 24q8 0 20 -3
q6 -1 26 2q59 9 120 9q67 0 113.5 -28.5t46.5 -81.5q0 -73 -19 -113q-22 -47 -78 -76q19 -10 40 -12.5t65 -2.5q2 0 25 3.5t35 3.5q15 0 26 -4.5t16 -14.5t14.5 -87.5t9.5 -119.5zM370 535q0 39 -19.5 61t-56.5 22l-32 -5l8 -140h35q48 12 60 30q5 7 5 32zM542 123
q0 13 -39 68q-13 18 -39 53l-91 134v9l17 3l-30 4q-19 -3 -64.5 -5t-139.5 -2l-14 -200l11 -157q9 2 14 4t9 2h57q2 0 17 -3.5t29 -5.5q-5 29 -8.5 59t-3.5 52q0 61 1.5 140t1.5 89q19 -10 48 -59q10 -18 32 -61q13 -27 32 -60q26 -45 35 -62.5t20.5 -38t24.5 -25.5
q2 6 56 36q24 14 24 26z" />
    <glyph glyph-name="S" unicode="S" horiz-adv-x="670" 
d="M638 153q0 -33 -4.5 -93t-11.5 -90q-12 -51 -56 -68q-31 -12 -95 -12l-97 18q-13 -6 -20 -7.5t-15 -1.5h-69q-19 -4 -35.5 -7.5t-25.5 -3.5q-22 0 -60 6.5t-50 15.5q-4 3 -14 16t-12 18q-10 58 -14 93q-15 112 -15 175q0 45 10 88t25 55q24 19 75.5 23.5t64.5 8.5
q-23 32 -35 58q-15 33 -15 59q1 13 1 17q0 80 27.5 111.5t94.5 31.5q137 0 182 -19q34 -14 68 -72l-92 -75q-16 28 -39 46t-51 18q-37 0 -55.5 -19t-18.5 -51q0 -24 18 -60q22 -44 55 -62q-16 3 -72.5 10t-67.5 4q30 -36 121 -96q66 -44 66 -78q0 -27 -14.5 -41.5
t-38.5 -14.5q-32 0 -62 25q-22 19 -35 42q-5 10 -9 23.5t-13 13.5q-32 -10 -48 -16q-48 -19 -48 -30q0 -54 81 -111q73 -51 183 -51q33 0 73 37q49 45 49 105q0 56 -41 95q-25 24 -118 80q23 -3 92 -4.5t73 -1.5q73 -8 93 -54q15 -35 15 -154z" />
    <glyph glyph-name="T" unicode="T" horiz-adv-x="665" 
d="M638 -51q0 -34 -18 -59.5t-48 -25.5q-72 9 -115 13q-129 13 -201 13l-112 -8q-67 0 -75 46q-3 38 -5 59l12 99l-28 240q0 29 7.5 37.5t33.5 8.5q6 0 30 -1t42 -1q10 0 58 9q27 5 48 5q0 24 1.5 41.5t3.5 40.5q0 25 -1 39q-4 62 -24 62q-14 0 -60 -2t-51 -4h-23v129
l161 -14l235 12l21 -4q0 -28 2 -48q7 -69 7 -81l-172 -2l-3 -14q8 -40 14.5 -83.5t6.5 -77.5q12 0 23 1.5t19 2.5q49 -6 74 -9q74 -10 78 -12q11 -6 25.5 -56.5t14.5 -88.5v-135q0 -6 13 -79q6 -33 6 -53zM422 41l-37 334q-55 0 -75 2.5t-40 6.5l-9 -211l1 -132h160z" />
    <glyph glyph-name="U" unicode="U" horiz-adv-x="685" 
d="M652 258q0 -54 -5 -139t-5 -140q0 -58 -17 -89t-61 -31q-5 0 -62.5 2.5t-87.5 2.5q-55 0 -91 -2q-108 -6 -158 -6q-59 0 -86 30q-23 25 -23 70v108l-8 69v74q0 111 19 145t58 38q0 35 -7.5 67t-7.5 33v26v21v18v15v13v11q0 21 -0.5 40t-0.5 35v12h144v-283q13 -2 28 4
l161 -35q4 13 4 31q0 63 -15 124q-17 54 -33 108q0 6 45 26t70 20q29 0 29 -172q0 -25 3 -40q10 -49 11 -57q-1 -23 -1 -29q0 -4 3.5 -7t11.5 -3q12 0 19 1.5t12 4.5q28 0 41 -24t13 -59q0 -18 -3 -33zM559 187v180h-114q0 -21 1 -55t1 -56q0 -52 -8 -82t-33 -30
q-9 0 -25.5 5t-35.5 12q-69 14 -77 27q-12 18 -12 68v19v16v13q0 18 -0.5 37.5t-0.5 40.5v13h-92.5h-37.5q0 -46 1.5 -103.5t1.5 -64.5q0 -63 14.5 -107.5t47.5 -52.5q20 -5 87.5 -10t94.5 -7.5t48 -2.5h25t27 1q52 -6 72 57q12 71 15 82z" />
    <glyph glyph-name="V" unicode="V" 
d="M632 79q0 -16 -2 -54.5t-4 -74.5q-7 -51 -34 -72q-19 -15 -51 -15q-8 0 -15.5 0.5t-14.5 0.5q-51 0 -135 -7q-28 -2 -74 -7q-43 0 -73 6.5t-59 13.5h-65q-55 0 -66 19.5t-11 126.5q0 10 -2 45t-2 55q0 16 2 49.5t2 38.5q0 70 6 107q14 83 54 87l71 -11h39q-20 61 -38 121
q-38 122 -38 135q0 8 9.5 15.5t16.5 8.5t23 2t37 1h48q8 -85 27.5 -154.5t38.5 -134.5q13 0 29 -1.5t18 -1.5q12 0 25 65q10 50 20.5 87t24.5 71q27 67 28 71h17q11 -5 50 -29q12 -7 36 -22l-77 -240q9 -5 57 -10.5t60 -109.5q5 -47 15 -100q7 -38 7 -82zM493 378h-117
q-2 -19 -15.5 -46t-18.5 -31q0 16 -11 50q-6 19 -6 30q-116 6 -126 6q17 -62 45 -159q21 -72 32 -115.5t11 -62.5l64 -8q11 0 17.5 0.5t10.5 1.5q4 3 5 19.5t6 26.5q10 20 23 55t17.5 54.5t62.5 178.5z" />
    <glyph glyph-name="W" unicode="W" horiz-adv-x="700" 
d="M436 364q-33 6 -52 6q-75 0 -89 -25q-11 -51 -25 -98l-14 116q16 1 25 1q10 0 21 -3q6 13 11 52q50 0 65 3t25 6q7 0 18 -21t15 -37zM656 616l-70 -244q25 -22 51 -43q7 -10 7 -57q0 -46 -7 -92.5t-15 -97.5q0 -8 9 -55q5 -26 5 -46q0 -54 -21 -81q-25 -32 -77 -32
q-68 8 -105 11q-113 11 -152 11q-18 -6 -42.5 -11t-65.5 -5q-67 0 -85 24q-21 29 -32 152q-4 41 -4 80q0 30 2 88t2 66q0 47 14 66l40 28l-42 292q16 0 52 6t49 6q22 0 32 -48q7 -42 15 -84q22 -77 33 -128q2 -9 4 -21v-26h-143l49 -340q5 2 9 2h6q8 0 20 -1.5t13 -1.5
q9 0 55 5q15 1 45 5q5 3 12 46q4 25 11 54q1 5 16 45t16 52q13 -16 24 -72t21 -111l68 -8q22 5 32 7q32 7 34 9t10 45q16 87 25 150q4 30 6.5 60t7.5 46q-8 3 -20 3h-14q-49 0 -72.5 -3.5t-36.5 -25.5l-5 20q18 0 28 50t26 96q9 25 28 88.5t20 68.5h15q4 -2 50 -23
q40 -18 47 -25z" />
    <glyph glyph-name="X" unicode="X" horiz-adv-x="675" 
d="M642 291q-4 -24 -6 -47q-7 -65 -17 -180q-3 -58 -5 -116q-11 -86 -56 -86q-28 8 -58 14t-67 6q-28 0 -77 -8q-25 -4 -34 -4q-28 8 -76 14t-96 6q-57 0 -77 47q-23 55 -23 216q0 32 -1 66.5t-1 43.5q0 39 13 66.5t44 40.5q20 9 42 13.5t34 4.5q10 0 22.5 -2t12.5 3
q0 14 -35 88q-40 86 -85 153v8q23 7 67 18t54 14l99 -195l114 195h9q25 -27 45 -43q24 -20 52 -34l-134 -209q34 0 110 -9t104 -22q8 -4 17 -28t9 -34zM562 121v9q-77 114 -86 131q-43 81 -44 82q-25 40 -76 45l-137 -4l11 -28l-138 -218q28 -39 48 -63.5t33 -30.5
q28 39 47 67.5t30 52.5q23 51 50 95q24 39 28 39q8 0 18 -13q6 -9 13 -18q36 -41 61 -97.5t50 -111.5q13 15 47.5 37.5t44.5 25.5z" />
    <glyph glyph-name="Y" unicode="Y" horiz-adv-x="665" 
d="M630 283q0 -13 -4 -36t-4 -37q0 -26 1 -68t1 -69q0 -126 -37 -161q-30 -28 -127 -28q-38 -4 -65 -5q-82 -5 -164 -5q-27 4 -42 6q-89 14 -101 19q-26 12 -33 35.5t-7 69.5v29q0 46 -2 79t-4 76q0 26 1.5 59.5t1.5 36.5q0 60 35 82q25 16 80 16q11 0 26.5 -0.5t34.5 -0.5
q17 0 29.5 1t22.5 5h32q-48 -75 -55 -87q-2 -3 -43 -84q-16 -31 -28.5 -50t-12.5 -20q0 -4 49 -40.5t61 -41.5l180 314l-146 12l6 5q-32 25 -53 51q-22 31 -38 52l-40 55q-12 19 -25 32q-16 16 -16 19t19 24q41 44 47 44q12 0 56 -40q56 -51 104 -125l112 175q21 -9 52 -31
q44 -30 44 -46q-28 -60 -44 -93q-50 -99 -81 -131q19 -5 50 -5h28q49 0 69 -13q30 -20 30 -80z" />
    <glyph glyph-name="Z" unicode="Z" horiz-adv-x="670" 
d="M632 -32q0 -37 -19 -66q-23 -34 -61 -34q-18 0 -48.5 4.5t-63.5 9.5l-75 -9q-4 -1 -15 -1q-17 0 -30 1q-50 4 -54 4q-12 0 -19.5 -1.5t-32.5 -8.5q-40 -11 -74 -11q-44 0 -62 24q-14 19 -14 56q0 15 3 40t3 33l-26 284q6 36 18 47t37 11q8 0 17.5 -0.5t19.5 -0.5h89
l100 128q44 44 88 89q-27 2 -44 3q-62 4 -90 4q-17 -3 -27 -4q-58 -9 -67 -12h-54q3 11 3 24q0 21 -1 47l-2 52l191 11q19 0 46.5 -1t78.5 -9t100 -14q15 -4 15 -17q0 -66 -1.5 -81.5t-7.5 -25.5q-25 -40 -42 -64q-51 -72 -104 -125q12 -3 25 -4t28 -1q19 0 52 3t47 3
q39 0 55 -25q11 -18 11 -50q-1 -22 -1 -28v-212q3 -12 5.5 -29t2.5 -44zM551 48v128h-155l-143 -26v6l152 197q-28 0 -39 3t-18 6q-21 0 -73 -6q-17 -2 -48 -6q-7 -4 -59 -74q-55 -74 -58 -91l18 -137q26 -6 44.5 -8t33.5 -2q20 0 33 3q25 6 28 6h40h31h26h22h19h17h15h13
h11h37.5t40.5 1h12z" />
    <glyph glyph-name="a" unicode="a" horiz-adv-x="669" 
d="M652 202q0 -16 -5 -44q-10 -58 -11 -62l-3 -81q-4 -86 -66 -122q-39 -22 -154 -39q-96 -14 -159 -14q-58 0 -126 12t-83 27q-10 10 -13.5 32t-3.5 58q0 31 -1 63.5t-1 63.5l10 141q0 83 39 115q23 19 87 32l-80 -311v-15q9 0 48 -12t72 -12q19 0 29 53q3 14 14 89t17 103
q10 45 19 45q24 -6 53.5 -11.5t55.5 -8.5v-66l23 -205l6 -6q60 15 92.5 25.5t32.5 25.5q0 12 -6 43.5t-11 56.5q-3 45 -4 68q-5 69 -7 72q-7 4 -12 6q-18 8 -42 12q-67 18 -133 36q-80 18 -125 18q-20 0 -37 -3q23 69 41 131q37 123 37 157q39 0 82.5 8.5t53.5 8.5
q29 0 62 -4q11 -1 27 -4v-26q4 -17 8 -33q3 -23 9 -78q0 -1 17 -123q9 -65 9 -106q58 0 101 -43q38 -38 38 -73zM365 415v118l-25 5q-3 0 -22.5 -47.5t-19.5 -51.5q0 -11 21.5 -15t30.5 -9h15z" />
    <glyph glyph-name="b" unicode="b" horiz-adv-x="670" 
d="M636 89q-8 -69 -12 -103q-13 -103 -17 -110q-10 -17 -58 -17q-13 0 -72 2.5t-82 2.5l-108 -17h-85q-9 0 -26 6t-31 11q-6 1 -16 2t-17 1h-22q-28 8 -36.5 45.5t-8.5 97.5q0 55 1 79.5t2 43.5q0 3 -5 54t-5 66q2 17 2 27q5 58 8 67q8 24 32 34q24 7 48 15q-4 15 -6 24
q-6 27 -6 44q0 48 3 125t3 126q6 -1 18 -1t35 4t39 4q93 0 167 -46q83 -52 83 -134q-9 -44 -30 -69q-36 -43 -104 -75q18 -7 35 -7q10 0 27 1.5t19 1.5q12 -5 25 -10t34 -9q47 -2 76 -4.5t43.5 -9.5t17.5 -17q2 -17 3 -31zM316 570q0 25 -29.5 38.5t-67.5 13.5
q-11 0 -13 -25v-30q0 -30 -4 -46v-34l14 -3q37 0 68.5 29.5t31.5 56.5zM484 155q1 16 1 23q0 17 -9 40.5t-40 77.5q-23 40 -61.5 69.5t-58.5 29.5h-186l12 -154v-222q11 -4 31 -4q7 0 53 2t90 2q67 0 115 36q53 40 53 100zM344 195q0 -59 -63 -71q-31 -6 -62 -11l-2 194h10
q69 -19 89 -36q28 -23 28 -76z" />
    <glyph glyph-name="c" unicode="c" 
d="M622 -46q0 -53 -22.5 -74.5t-75.5 -21.5q-34 0 -104 10l-123 -14q-6 -1 -11 -1q-11 0 -28.5 3.5t-50.5 13.5q-41 8 -81 16q-38 19 -38 101q0 63 -12.5 135t-25.5 144q0 49 22 66q17 13 58 13q13 0 26.5 -0.5t28.5 -0.5q5 16 5 37q0 16 -2 29t-4 32q0 90 42 160
q48 80 125 80q12 0 42 -13q79 -35 146 -116l-40 -40q-27 29 -41 43q-26 26 -61 26q-37 0 -84.5 -34.5t-62.5 -74.5q-5 -14 -5 -29q1 -15 1 -22q0 -13 -4 -24v-28t3 -14q28 5 69 9.5t89 4.5q16 -3 56.5 -5.5t94.5 -2.5q33 0 47 -25q11 -20 11 -57q0 -19 -2 -39t-3 -37v-134
q0 -3 7.5 -49t7.5 -67zM532 186q-9 8 -15 12q-19 13 -47 26q-16 -45 -35 -63q-26 -25 -72 -25q-59 0 -88 47q-33 53 -33 172h-15q-19 -6 -37 -11q-6 -7 -6 -63q0 -95 43 -155q52 -72 153 -72q33 0 47 3t35 16q8 6 40 60q10 18 30 53z" />
    <glyph glyph-name="d" unicode="d" horiz-adv-x="690" 
d="M652 46q-1 -40 -3 -63q-7 -68 -25 -104q-14 -28 -70 -39q-35 -7 -87 -7h-228q-95 0 -139 34t-44 114v83q0 10 -4 31q-7 31 -13 63q-3 38 -3 65v23q8 88 36 103l64 18q0 52 3 135t3 136q0 33 16.5 46.5t64.5 13.5q98 0 174 -62q70 -58 87 -138q10 -94 11 -104.5t51 -16
t73 -29.5t23 -79q0 -14 -3 -25q-9 -34 -9 -40q9 -30 15.5 -69t6.5 -89zM370 381v32q-39 104 -61 129q-17 19 -82 45h-8v-206q12 -4 35 -4q17 0 51 3t46 3q11 0 19 -2zM493 370v13q-32 3 -47 3q-12 0 -36.5 -2.5t-36.5 -2.5v-15q0 -29 -1.5 -45.5t-10 -34.5t-60.5 -62.5
t-74 -50.5l-11 202q-36 0 -50.5 -3.5t-29.5 -7.5v-126q0 -9 5 -81.5t4 -78.5q6 -1 25 -9q12 -5 45 -5q87 0 148 53q46 40 87 121q6 9 13.5 19.5t11 22t11.5 57.5q4 24 7 33z" />
    <glyph glyph-name="e" unicode="e" horiz-adv-x="665" 
d="M626 128q0 -27 -5.5 -93t-13.5 -96q-13 -48 -39 -65q-20 -13 -62 -13q-15 0 -30 0.5t-31 0.5q-86 0 -128 4l-70 10h-74q-21 -2 -33 -2q-35 0 -54 27q-27 39 -27 135v68q-4 23 -7.5 52t-3.5 47l8 47q1 8 1 15v30q0 59 8 88q13 49 50 49q3 0 15 -2q0 38 1.5 86t1.5 54
l-9 114q0 20 12 20q30 -4 52 -6q67 -6 139 -6h37q55 0 97.5 -6t42.5 -25q0 -40 -5 -52t-21 -12q-4 0 -22 2t-34 2h-109q-43 0 -59 -11.5t-16 -32.5q0 -52 2 -65t5 -17t47.5 -13t92.5 -9q1 -6 1 -15q-1 -14 -1 -23q58 -8 117 -15q43 -10 71 -70q9 -20 31 -98.5t22 -103.5z
M530 61v89l-292 17q5 10 5 20q0 7 -2.5 22t-2.5 22q0 60 4 102q1 15 5 34q1 1 10 3t20 4q17 -1 43.5 -2.5t62.5 -1.5q-1 8 -1 11q0 16 1 32l-247 17q0 -18 -0.5 -39t-0.5 -44q0 -24 1 -32.5t9 -33t8 -40.5v-91q0 -12 -2 -33t-2 -30q0 -22 8 -32.5t32 -10.5l215 24z" />
    <glyph glyph-name="f" unicode="f" horiz-adv-x="660" 
d="M618 159q0 -1 -14 -84q-9 -55 -16.5 -117t-26 -83t-47.5 -21q-10 0 -38.5 4t-37.5 4q-37 0 -70 -8q-74 -18 -93 -18q-43 11 -65 16q-66 17 -71 21q-14 11 -33 92q-24 99 -24 198q1 13 1 23q5 77 5 135q0 39 15 51t57 12l-10 114v106q0 6 -5.5 30t-5.5 47l6 3q13 -5 24 -7
q38 -10 77 -13l311 23v-58t1 -58q0 -14 -39.5 -17t-55.5 -5t-44 -2q-42 0 -74 1t-60 2q-1 -4 -1 -29q0 -24 1 -48t2 -35h94q6 0 8.5 -1.5t6.5 -3.5l1 -52h-78q-21 6 -53 10.5t-37 4.5q-8 -3 -13 -4q-32 -9 -53 -9q0 -35 -2 -72t-4 -69l10 -205q10 5 19 5q2 0 24 -3t51 -3h23
q15 2 15 22v36.5t1 41.5q0 58 -2.5 116t-7.5 98q5 0 22 -1t27 -1q28 0 44 7t16 25l26 -2q58 -16 117 -31q76 -45 76 -188z" />
    <glyph glyph-name="g" unicode="g" horiz-adv-x="670" 
d="M642 -35q0 -17 -15 -47t-31 -37q-2 -1 -6.5 -2t-12.5 -1q-5 0 -18.5 1t-20.5 1t-15.5 -1.5t-42 -15t-57.5 -13.5l-170 17h-105q-63 0 -87 36q-16 24 -16 71v36q-10 72 -13.5 117t-3.5 96q0 38 1 64.5t4 36.5q16 51 44 54.5t36 14.5q5 14 8 28t11.5 56.5t46.5 115.5
q28 53 54 68q18 10 37 12.5t61 2.5q76 0 130 -15q85 -24 85 -76q0 -14 -26.5 -35.5t-33.5 -21.5q-20 21 -46 36q-31 18 -69 18q-64 0 -110 -93q-36 -99 -39 -108q5 -1 16 -1q17 0 40 2.5t27 1.5q9 -2 105 -14t100 -12h63q35 0 49 -25q10 -18 10 -58q0 -10 -1 -30t-1 -29
q5 -27 8.5 -94.5t3.5 -156.5zM610 264q0 6 -1.5 22.5t-1.5 29.5l-34 8h-29h-24h-19h-17h-14h-12h-40.5t-41.5 1h-14v-71q1 -9 5.5 -14.5t18.5 -5.5q14 1 21 1q19 0 19 -18q0 -41 -14 -62q-17 -25 -56 -25q-55 0 -98 72q-36 61 -36 111v65l-112 12v-80q0 -102 52 -183
q45 -70 100 -89q11 -4 18.5 -5t18.5 -1q6 0 18 1t18 1q88 0 134 38q55 45 55 146h40q12 -3 20 -3q14 0 20 10t6 39z" />
    <glyph glyph-name="h" unicode="h" horiz-adv-x="640" 
d="M490 658l-17 -137v-160h-353l-12 311h137q4 -20 5 -42.5t1 -54.5t-1.5 -78.5t-2.5 -101.5q17 -1 42 4t61 5l12 271q13 -2 62.5 -7t65.5 -10zM604 259q0 -50 -7 -89t-15 -81q6 -16 11 -36t5 -50q0 -36 -5 -68.5t-16 -51.5t-23 -25.5t-27 -6.5q-10 0 -32 5t-33 5h-109
q-13 -5 -36.5 -9t-49.5 -4q-14 0 -38.5 9.5t-52.5 9.5q-13 0 -23 -2q-35 -7 -37 -7q-14 0 -21.5 4t-15.5 14q-24 30 -35 66q-16 53 -16 122q0 54 5.5 86t5.5 34v57q0 3 -3.5 20.5t-3.5 28.5q0 29 19.5 51.5t40.5 22.5q8 -3 18 -3v-314h140l9 134v120q27 6 40.5 7.5t36.5 1.5
l40 -3q0 -25 -1 -34t-2 -16q0 -10 2.5 -26.5t9 -63t6.5 -97.5q0 -4 -7.5 -3.5t-10.5 0.5q8 -3 18 -3l88 1v293h8q75 -21 96 -43t21 -56z" />
    <glyph glyph-name="i" unicode="i" 
d="M622 87q0 -6 -13 -95q-4 -29 -13 -88q-7 -4 -13.5 -8t-15.5 -12t-81 -22t-126 -14q-58 8 -133.5 14t-129.5 6q-41 0 -51 18t-10 73v31q0 7 11 109q6 56 6 179q0 86 39 101q27 5 36 8q87 28 127 28h8q5 -2 7 -2q7 24 7 46q0 8 -2 39t-2 60q-18 -1 -35 -1q-32 0 -56 6
t-24 23l12 98l320 -32q-3 -15 -5.5 -39.5t-2.5 -57.5q-7 -1 -16 -1.5t-13 -0.5q-15 0 -40 2.5t-34 2.5q-2 -7 -2 -25q0 -20 2 -37q7 -60 7 -63q0 -22 -7 -35h77q39 0 94 -25q72 -33 72 -80v-206zM499 90v20q-48 0 -106 9q-10 1 -26 5l-3 27l18 247l-95 16q-12 -1 -15 -8
q-10 -20 -10 -85q0 -53 1.5 -120.5t1.5 -76.5q-5 -4 -7 -5t-16 -6q-1 3 -39 12q-12 3 -38 9q-12 0 -23 -21v-90l340 -2q0 16 8 43q2 9 9 26z" />
    <glyph glyph-name="j" unicode="j" horiz-adv-x="695" 
d="M652 250q0 -12 -17 -115q-9 -55 -9 -89q0 -33 5 -63.5t11 -64.5q0 -42 -35 -58q-26 -12 -76 -12q-32 0 -70 18t-69 18q-11 0 -65 -18q-30 -10 -53 -10l-69 8h-80q-38 0 -55.5 48.5t-17.5 110.5q0 27 5 55.5t11 62.5q0 33 -3 84t-3 84q0 42 41 58q29 11 87 11h100
q32 0 46 14t14 54q0 10 -1.5 25t-2.5 24l-1 86q-7 0 -51.5 -8.5t-64.5 -8.5l-42 1l-2 122q3 0 32 -6q14 -3 25 -3q50 0 113 1.5t72 1.5q26 -5 62 -9.5t78 -4.5l-2 -100l-146 8q3 -10 5 -40t2 -96q0 -41 5.5 -55.5t17.5 -14.5q1 0 18.5 3.5t28.5 3.5q5 0 12 -2q25 -8 54 -16
q18 2 28 0q62 -13 62 -108zM438 259q0 32 -4 55t-4 59l-97 8v-111q0 -21 -20 -62q-25 -50 -52 -50q-28 0 -43.5 35.5t-15.5 72.5q2 14 2 23q0 5 -2 15h-12q-19 -7 -58.5 -7t-39.5 -54q0 -70 29 -113q36 -54 113 -54q125 0 167 42q37 37 37 141z" />
    <glyph glyph-name="k" unicode="k" horiz-adv-x="645" 
d="M610 180q0 -49 -8 -91t-26 -90q-14 -37 -28 -75q-32 -74 -84 -74h-16q-41 0 -101 6q-141 12 -186 16q-108 10 -108 75v77q0 18 2 33q7 53 7 64q0 33 -12 69t-12 59q0 96 35 115t35 127l-12 187h63q14 -8 20.5 -9.5t25.5 -1.5v-209q31 10 82 71t59 61q24 -16 36 -26
q36 -31 36 -53q0 -12 -36 -50q-43 -42 -86 -83q27 3 50 3q18 0 33 -1t83 -7l74 -6q7 -2 14 -12q4 -7 9 -14q15 -10 23 -18q28 -27 28 -143zM456 122q0 12 -39 62.5t-81 125.5q-28 50 -38 55q-24 13 -125 13h-50.5h-23.5l-2 -166l8 -171q24 0 47 -0.5t45 -0.5q15 0 19 1
l3 272q20 -16 49 -68.5t34 -60.5q23 -40 47 -80q16 -28 16 -46h8q19 23 51 38.5t32 25.5z" />
    <glyph glyph-name="l" unicode="l" horiz-adv-x="650" 
d="M610 -31q0 -49 -10 -69.5t-44 -20.5q-24 0 -62 1t-62 1l-227 -7q-6 0 -14.5 -1t-17.5 -1q-51 0 -72.5 22.5t-21.5 75.5v57q0 25 -7 58q-16 76 -16 103v47.5t3 48.5l9 69q4 15 12.5 22.5t24.5 7.5q14 0 14 7q0 54 -1 140t-1 140h22q16 -5 55 -6t41.5 -7t4.5 -49t2 -49
q-4 -36 -5 -54q-5 -57 -7 -61v-60h75l151 -14q6 -2 12 -10t11 -10q40 -12 60 -23q60 -34 60 -91v-78q3 -11 5.5 -27t2.5 -41q0 -32 1.5 -74t1.5 -47zM496 47v106q0 16 -29.5 19.5t-49.5 3.5q-5 0 -42 -5.5t-45 -3.5q-30 5 -50 7t-38 2l-12 207q-15 0 -41 -3t-37 -3
q-10 0 -18 1t-15 5v-50q2 -5 14 -81q4 -24 12 -74v-123h154l165 -13z" />
    <glyph glyph-name="m" unicode="m" horiz-adv-x="710" 
d="M672 253q0 -10 -11 -58t-11 -74q-1 -10 -1 -14q0 -15 4.5 -67.5t4.5 -77.5q0 -45 -29.5 -73.5t-75.5 -28.5q-26 0 -38 3.5t-19 3.5h-71q-1 0 -11.5 3.5t-16.5 3.5q-19 -8 -41.5 -14.5t-47.5 -6.5h-14q-6 1 -9 1q-19 0 -51 1t-52 1q-93 8 -124 24q-39 20 -39 73v254
q0 37 11 82t26 61q0 -65 2 -109q7 -154 7 -174q0 -25 28 -25q7 0 15 1q38 5 51 5h18t25 -4l5 23q-6 20 -11 77.5t-5 121.5v118h74q-36 46 -54 82t-35 72q-4 -12 -4 -15q6 -36 10.5 -74t4.5 -65q-68 0 -87 -8q-21 -11 -41 -21l6 346q5 -4 17 -4q24 1 61 2.5t99 1.5l80 -200
q6 13 15 38q13 34 30 88q7 22 14 30t17 8q5 0 28.5 -4.5t42.5 -4.5q31 0 57 4q65 10 79 10q1 -46 1.5 -149t0.5 -157q37 -3 53 -38q12 -27 12 -73zM493 383l-11 144q-32 -59 -54.5 -89t-42.5 -57zM630 61l-17 177v63q0 66 -19 70q-44 5 -87 10h-11l8 -68v-272q7 -3 15 -5
q4 0 29 6q72 18 82 19zM376 378q-41 0 -53.5 2t-16.5 4q-7 -1 -21 -2t-18 -1q12 -12 27 -46q9 -21 27 -21q11 0 30 28q12 18 25 36z" />
    <glyph glyph-name="n" unicode="n" horiz-adv-x="680" 
d="M656 12q0 -81 -61 -109q-41 -19 -133 -19h-43q-55 0 -96 7q-42 9 -84 17q-27 -7 -57 -12.5t-52 -5.5q-43 0 -62 9q-26 12 -26 45v14q0 18 -0.5 35.5t-0.5 35.5v12l11 103q-1 9 -8.5 47t-7.5 85q0 117 24.5 121t24.5 90q0 39 -1 102t-1 103h34l93 -5q8 -3 48 -68
q100 -161 121 -186v248q29 0 49 -3.5t39 -6.5q10 0 20 10l3 -303q31 -6 51 -12q69 -21 69 -119v-63q18 -51 32 -92.5t14 -79.5zM250 404l-54 91l11 -90q10 2 13 2q7 0 18 -1.5t12 -1.5zM496 94l-6 24v257l-94 23h-140q6 -5 18 -33.5t21 -47t13.5 -32t13.5 -52.5
q13 -55 26 -94t28 -81q63 0 86.5 -3t30.5 -2q0 27 0.5 32.5t2.5 8.5zM205 47l-15 163l15 193h-126v-365z" />
    <glyph glyph-name="o" unicode="o" horiz-adv-x="680" 
d="M647 38q0 -61 -36.5 -110.5t-76.5 -49.5q-12 0 -38 6q-44 10 -67 14l-160 -24q-20 0 -43 6q-23 8 -28 9q-50 6 -75 12q-47 11 -63.5 44t-22.5 55q-2 7 -4 17l-6 286q0 58 18.5 77.5t67.5 19.5q10 101 51 169q49 83 125 83q69 0 106 -14q50 -19 69 -70q7 -19 11 -39
q9 -42 14 -58q13 -39 21 -76q3 -16 8 -21q36 -7 59 -15.5t27 -30t5.5 -31t1.5 -11.5q-1 -10 -1.5 -25t-0.5 -30q0 -17 25 -115q13 -51 13 -78zM398 388q-16 81 -49 128q-25 36 -43 36q-36 0 -66 -66q-9 -22 -22 -66v-23h126q10 0 25 -3t29 -6zM521 329q1 17 1 23
q0 12 -8 18.5t-33 9.5q-9 0 -18.5 1t-14.5 1q-12 0 -22.5 -0.5t-19.5 -0.5v-60.5t1 -60.5q0 -60 -25 -98q-31 -48 -66 -48q-38 0 -73 43q-31 38 -31 66q0 46 1.5 103.5t1.5 64.5q-4 0 -11 -0.5t-17 -0.5q-18 0 -37.5 2.5t-36.5 7.5q0 -2 -3 -50t-3 -77q0 -65 3.5 -93
t10.5 -43q35 -74 105 -104q44 -19 98 -19q80 0 119 51q28 37 55 141q14 55 16 64q7 33 7 59z" />
    <glyph glyph-name="p" unicode="p" horiz-adv-x="620" 
d="M588 -38q0 -28 -9 -58q-13 -42 -35 -42q-29 0 -74 4t-93 8q-26 -5 -56.5 -8.5t-53.5 -3.5q-42 0 -68 8q-30 13 -59 26q-10 2 -23.5 -2t-16.5 -4q-17 0 -23 11t-6 27q1 10 1 12q-12 44 -17 72q-17 86 -17 155q0 88 -2.5 118.5t-3.5 48.5q0 43 51 47t51 7q-6 18 -11 39
t-5 40q0 33 -3 87t-3 88q0 28 21.5 38t54.5 10q92 0 161 -66q65 -63 65 -139q0 -23 -8 -53t-17 -45q33 -10 54.5 -13.5t36.5 -3.5h12q21 0 40 -7.5t28.5 -27t9.5 -50.5q0 -11 -1.5 -25.5t-3 -28t-1.5 -25.5q0 -42 12 -135t12 -109zM294 486q0 75 -74 104h-23
q11 -30 18.5 -64t7.5 -68v-28q0 -9 0.5 -16.5t5.5 -15.5q39 17 49 27q16 17 16 61zM386 384q-37 0 -52 1t-24 3q-19 -1 -69.5 -2.5t-105.5 -1.5q7 -34 13 -94l-12 -153q0 -2 2 -51.5t14 -49.5q23 5 47.5 9.5t49.5 4.5l-12 274q10 -1 17.5 -1.5t11.5 -0.5q49 0 82 25
q29 30 38 37z" />
    <glyph glyph-name="q" unicode="q" horiz-adv-x="685" 
d="M646 293v-195v-41v-38q-3 -11 -5 -20.5t-17 -42.5q-18 -40 -30.5 -48.5t-94 -26t-95.5 -17.5q-26 7 -80 12.5t-148 5.5q-68 0 -101 51q-27 42 -27 113q2 40 3 64q5 73 14 126v13q0 21 0.5 45t7.5 36q11 21 46.5 25t39.5 18l48 176q36 93 177 93q58 0 95 -38
q25 -25 65 -129q11 -27 15 -70q1 -10 35 -15t45 -35q7 -18 7 -62zM456 387v26q-12 37 -23 74q-24 55 -66 55q-25 0 -54 -61q-25 -51 -37 -103l54 9h126zM567 190q0 50 -1 77q-4 106 -4 123q-7 -3 -40.5 -6t-62.5 -3v-188h-9q-7 21 -16 35t-17 14q-17 -5 -25 -9
q-26 -13 -26 -33q0 -5 11 -25q29 -52 30 -54q-6 -2 -25 -9.5t-25 -7.5q-50 0 -75 81q-16 53 -16 107q0 17 2 36t2 26q0 11 -2 19q-36 -3 -41 -3q-7 1 -15 1q-10 0 -19 -1q-27 0 -34 -9t-7 -42q0 -41 23 -125q7 -28 24 -78q14 -56 59 -86q39 -26 91 -26q45 0 77 8q10 2 23 8
q6 0 15 -20t31 -20q20 0 30.5 4t10.5 18q0 15 -15 35t-15 27q0 8 30.5 40.5t30.5 85.5z" />
    <glyph glyph-name="r" unicode="r" 
d="M630 159q0 -17 -8 -55q-2 -13 -9 -37q-8 -56 -15 -112q-20 -82 -75 -82q-7 1 -10 1l-218 16q-7 0 -60 -13q-29 -7 -61 -7q-70 0 -91 27q-10 13 -24 82q-7 30 -9 42q-5 27 -5 40v206q0 71 25.5 95.5t85.5 24.5v186q0 20 -3.5 48.5t-3.5 38.5q0 24 21 24q8 0 20 -3
q6 -1 26 2q59 9 120 9q67 0 113.5 -28.5t46.5 -81.5q0 -73 -19 -113q-22 -47 -78 -76q19 -10 40 -12.5t65 -2.5q2 0 25 3.5t35 3.5q15 0 26 -4.5t16 -14.5t14.5 -87.5t9.5 -119.5zM370 535q0 39 -19.5 61t-56.5 22l-32 -5l8 -140h35q48 12 60 30q5 7 5 32zM542 123
q0 13 -39 68q-13 18 -39 53l-91 134v9l17 3l-30 4q-19 -3 -64.5 -5t-139.5 -2l-14 -200l11 -157q9 2 14 4t9 2h57q2 0 17 -3.5t29 -5.5q-5 29 -8.5 59t-3.5 52q0 61 1.5 140t1.5 89q19 -10 48 -59q10 -18 32 -61q13 -27 32 -60q26 -45 35 -62.5t20.5 -38t24.5 -25.5
q2 6 56 36q24 14 24 26z" />
    <glyph glyph-name="s" unicode="s" horiz-adv-x="670" 
d="M638 153q0 -33 -4.5 -93t-11.5 -90q-12 -51 -56 -68q-31 -12 -95 -12l-97 18q-13 -6 -20 -7.5t-15 -1.5h-69q-19 -4 -35.5 -7.5t-25.5 -3.5q-22 0 -60 6.5t-50 15.5q-4 3 -14 16t-12 18q-10 58 -14 93q-15 112 -15 175q0 45 10 88t25 55q24 19 75.5 23.5t64.5 8.5
q-23 32 -35 58q-15 33 -15 59q1 13 1 17q0 80 27.5 111.5t94.5 31.5q137 0 182 -19q34 -14 68 -72l-92 -75q-16 28 -39 46t-51 18q-37 0 -55.5 -19t-18.5 -51q0 -24 18 -60q22 -44 55 -62q-16 3 -72.5 10t-67.5 4q30 -36 121 -96q66 -44 66 -78q0 -27 -14.5 -41.5
t-38.5 -14.5q-32 0 -62 25q-22 19 -35 42q-5 10 -9 23.5t-13 13.5q-32 -10 -48 -16q-48 -19 -48 -30q0 -54 81 -111q73 -51 183 -51q33 0 73 37q49 45 49 105q0 56 -41 95q-25 24 -118 80q23 -3 92 -4.5t73 -1.5q73 -8 93 -54q15 -35 15 -154z" />
    <glyph glyph-name="t" unicode="t" horiz-adv-x="665" 
d="M638 -51q0 -34 -18 -59.5t-48 -25.5q-72 9 -115 13q-129 13 -201 13l-112 -8q-67 0 -75 46q-3 38 -5 59l12 99l-28 240q0 29 7.5 37.5t33.5 8.5q6 0 30 -1t42 -1q10 0 58 9q27 5 48 5q0 24 1.5 41.5t3.5 40.5q0 25 -1 39q-4 62 -24 62q-14 0 -60 -2t-51 -4h-23v129
l161 -14l235 12l21 -4q0 -28 2 -48q7 -69 7 -81l-172 -2l-3 -14q8 -40 14.5 -83.5t6.5 -77.5q12 0 23 1.5t19 2.5q49 -6 74 -9q74 -10 78 -12q11 -6 25.5 -56.5t14.5 -88.5v-135q0 -6 13 -79q6 -33 6 -53zM422 41l-37 334q-55 0 -75 2.5t-40 6.5l-9 -211l1 -132h160z" />
    <glyph glyph-name="u" unicode="u" horiz-adv-x="685" 
d="M652 258q0 -54 -5 -139t-5 -140q0 -58 -17 -89t-61 -31q-5 0 -62.5 2.5t-87.5 2.5q-55 0 -91 -2q-108 -6 -158 -6q-59 0 -86 30q-23 25 -23 70v108l-8 69v74q0 111 19 145t58 38q0 35 -7.5 67t-7.5 33v26v21v18v15v13v11q0 21 -0.5 40t-0.5 35v12h144v-283q13 -2 28 4
l161 -35q4 13 4 31q0 63 -15 124q-17 54 -33 108q0 6 45 26t70 20q29 0 29 -172q0 -25 3 -40q10 -49 11 -57q-1 -23 -1 -29q0 -4 3.5 -7t11.5 -3q12 0 19 1.5t12 4.5q28 0 41 -24t13 -59q0 -18 -3 -33zM559 187v180h-114q0 -21 1 -55t1 -56q0 -52 -8 -82t-33 -30
q-9 0 -25.5 5t-35.5 12q-69 14 -77 27q-12 18 -12 68v19v16v13q0 18 -0.5 37.5t-0.5 40.5v13h-92.5h-37.5q0 -46 1.5 -103.5t1.5 -64.5q0 -63 14.5 -107.5t47.5 -52.5q20 -5 87.5 -10t94.5 -7.5t48 -2.5h25t27 1q52 -6 72 57q12 71 15 82z" />
    <glyph glyph-name="v" unicode="v" 
d="M632 79q0 -16 -2 -54.5t-4 -74.5q-7 -51 -34 -72q-19 -15 -51 -15q-8 0 -15.5 0.5t-14.5 0.5q-51 0 -135 -7q-28 -2 -74 -7q-43 0 -73 6.5t-59 13.5h-65q-55 0 -66 19.5t-11 126.5q0 10 -2 45t-2 55q0 16 2 49.5t2 38.5q0 70 6 107q14 83 54 87l71 -11h39q-20 61 -38 121
q-38 122 -38 135q0 8 9.5 15.5t16.5 8.5t23 2t37 1h48q8 -85 27.5 -154.5t38.5 -134.5q13 0 29 -1.5t18 -1.5q12 0 25 65q10 50 20.5 87t24.5 71q27 67 28 71h17q11 -5 50 -29q12 -7 36 -22l-77 -240q9 -5 57 -10.5t60 -109.5q5 -47 15 -100q7 -38 7 -82zM493 378h-117
q-2 -19 -15.5 -46t-18.5 -31q0 16 -11 50q-6 19 -6 30q-116 6 -126 6q17 -62 45 -159q21 -72 32 -115.5t11 -62.5l64 -8q11 0 17.5 0.5t10.5 1.5q4 3 5 19.5t6 26.5q10 20 23 55t17.5 54.5t62.5 178.5z" />
    <glyph glyph-name="w" unicode="w" horiz-adv-x="700" 
d="M436 364q-33 6 -52 6q-75 0 -89 -25q-11 -51 -25 -98l-14 116q16 1 25 1q10 0 21 -3q6 13 11 52q50 0 65 3t25 6q7 0 18 -21t15 -37zM656 616l-70 -244q25 -22 51 -43q7 -10 7 -57q0 -46 -7 -92.5t-15 -97.5q0 -8 9 -55q5 -26 5 -46q0 -54 -21 -81q-25 -32 -77 -32
q-68 8 -105 11q-113 11 -152 11q-18 -6 -42.5 -11t-65.5 -5q-67 0 -85 24q-21 29 -32 152q-4 41 -4 80q0 30 2 88t2 66q0 47 14 66l40 28l-42 292q16 0 52 6t49 6q22 0 32 -48q7 -42 15 -84q22 -77 33 -128q2 -9 4 -21v-26h-143l49 -340q5 2 9 2h6q8 0 20 -1.5t13 -1.5
q9 0 55 5q15 1 45 5q5 3 12 46q4 25 11 54q1 5 16 45t16 52q13 -16 24 -72t21 -111l68 -8q22 5 32 7q32 7 34 9t10 45q16 87 25 150q4 30 6.5 60t7.5 46q-8 3 -20 3h-14q-49 0 -72.5 -3.5t-36.5 -25.5l-5 20q18 0 28 50t26 96q9 25 28 88.5t20 68.5h15q4 -2 50 -23
q40 -18 47 -25z" />
    <glyph glyph-name="x" unicode="x" horiz-adv-x="675" 
d="M642 291q-4 -24 -6 -47q-7 -65 -17 -180q-3 -58 -5 -116q-11 -86 -56 -86q-28 8 -58 14t-67 6q-28 0 -77 -8q-25 -4 -34 -4q-28 8 -76 14t-96 6q-57 0 -77 47q-23 55 -23 216q0 32 -1 66.5t-1 43.5q0 39 13 66.5t44 40.5q20 9 42 13.5t34 4.5q10 0 22.5 -2t12.5 3
q0 14 -35 88q-40 86 -85 153v8q23 7 67 18t54 14l99 -195l114 195h9q25 -27 45 -43q24 -20 52 -34l-134 -209q34 0 110 -9t104 -22q8 -4 17 -28t9 -34zM562 121v9q-77 114 -86 131q-43 81 -44 82q-25 40 -76 45l-137 -4l11 -28l-138 -218q28 -39 48 -63.5t33 -30.5
q28 39 47 67.5t30 52.5q23 51 50 95q24 39 28 39q8 0 18 -13q6 -9 13 -18q36 -41 61 -97.5t50 -111.5q13 15 47.5 37.5t44.5 25.5z" />
    <glyph glyph-name="y" unicode="y" horiz-adv-x="665" 
d="M630 283q0 -13 -4 -36t-4 -37q0 -26 1 -68t1 -69q0 -126 -37 -161q-30 -28 -127 -28q-38 -4 -65 -5q-82 -5 -164 -5q-27 4 -42 6q-89 14 -101 19q-26 12 -33 35.5t-7 69.5v29q0 46 -2 79t-4 76q0 26 1.5 59.5t1.5 36.5q0 60 35 82q25 16 80 16q11 0 26.5 -0.5t34.5 -0.5
q17 0 29.5 1t22.5 5h32q-48 -75 -55 -87q-2 -3 -43 -84q-16 -31 -28.5 -50t-12.5 -20q0 -4 49 -40.5t61 -41.5l180 314l-146 12l6 5q-32 25 -53 51q-22 31 -38 52l-40 55q-12 19 -25 32q-16 16 -16 19t19 24q41 44 47 44q12 0 56 -40q56 -51 104 -125l112 175q21 -9 52 -31
q44 -30 44 -46q-28 -60 -44 -93q-50 -99 -81 -131q19 -5 50 -5h28q49 0 69 -13q30 -20 30 -80z" />
    <glyph glyph-name="z" unicode="z" horiz-adv-x="670" 
d="M632 -32q0 -37 -19 -66q-23 -34 -61 -34q-18 0 -48.5 4.5t-63.5 9.5l-75 -9q-4 -1 -15 -1q-17 0 -30 1q-50 4 -54 4q-12 0 -19.5 -1.5t-32.5 -8.5q-40 -11 -74 -11q-44 0 -62 24q-14 19 -14 56q0 15 3 40t3 33l-26 284q6 36 18 47t37 11q8 0 17.5 -0.5t19.5 -0.5h89
l100 128q44 44 88 89q-27 2 -44 3q-62 4 -90 4q-17 -3 -27 -4q-58 -9 -67 -12h-54q3 11 3 24q0 21 -1 47l-2 52l191 11q19 0 46.5 -1t78.5 -9t100 -14q15 -4 15 -17q0 -66 -1.5 -81.5t-7.5 -25.5q-25 -40 -42 -64q-51 -72 -104 -125q12 -3 25 -4t28 -1q19 0 52 3t47 3
q39 0 55 -25q11 -18 11 -50q-1 -22 -1 -28v-212q3 -12 5.5 -29t2.5 -44zM551 48v128h-155l-143 -26v6l152 197q-28 0 -39 3t-18 6q-21 0 -73 -6q-17 -2 -48 -6q-7 -4 -59 -74q-55 -74 -58 -91l18 -137q26 -6 44.5 -8t33.5 -2q20 0 33 3q25 6 28 6h40h31h26h22h19h17h15h13
h11h37.5t40.5 1h12z" />
  </font>
</defs>
</svg>
